<mxfile host="app.diagrams.net" modified="2023-12-21T02:03:53.650Z" agent="Mozilla/5.0 (X11; Linux x86_64; rv:120.0) Gecko/20100101 Firefox/120.0" etag="YX8ruAXkwDYiX6Lf2TCM" version="22.1.11" type="device" pages="10">
  <diagram id="i2m_oHg4zx6aL3xxgG93" name="main">
    <mxGraphModel dx="2154" dy="690" grid="1" gridSize="10" guides="1" tooltips="1" connect="1" arrows="1" fold="1" page="1" pageScale="1" pageWidth="850" pageHeight="1100" math="0" shadow="0">
      <root>
        <mxCell id="0" />
        <mxCell id="1" parent="0" />
        <mxCell id="BdfruFI2Bqq8TeaFG7KO-48" value="Початок" style="rounded=1;whiteSpace=wrap;html=1;arcSize=50;" vertex="1" parent="1">
          <mxGeometry x="380" y="30" width="120" height="60" as="geometry" />
        </mxCell>
        <mxCell id="BdfruFI2Bqq8TeaFG7KO-51" style="edgeStyle=orthogonalEdgeStyle;rounded=0;orthogonalLoop=1;jettySize=auto;html=1;" edge="1" parent="1" source="BdfruFI2Bqq8TeaFG7KO-49">
          <mxGeometry relative="1" as="geometry">
            <mxPoint x="440" y="240" as="targetPoint" />
          </mxGeometry>
        </mxCell>
        <mxCell id="BdfruFI2Bqq8TeaFG7KO-49" value="choice" style="rhombus;whiteSpace=wrap;html=1;fontSize=14;" vertex="1" parent="1">
          <mxGeometry x="380" y="130" width="120" height="80" as="geometry" />
        </mxCell>
        <mxCell id="BdfruFI2Bqq8TeaFG7KO-50" value="" style="endArrow=none;html=1;rounded=0;entryX=0.5;entryY=1;entryDx=0;entryDy=0;exitX=0.5;exitY=0;exitDx=0;exitDy=0;" edge="1" parent="1" source="BdfruFI2Bqq8TeaFG7KO-49" target="BdfruFI2Bqq8TeaFG7KO-48">
          <mxGeometry width="50" height="50" relative="1" as="geometry">
            <mxPoint x="430" y="360" as="sourcePoint" />
            <mxPoint x="480" y="310" as="targetPoint" />
          </mxGeometry>
        </mxCell>
        <mxCell id="BdfruFI2Bqq8TeaFG7KO-55" value="" style="rounded=0;whiteSpace=wrap;html=1;fillColor=none;" vertex="1" parent="1">
          <mxGeometry x="-90" y="240" width="1080" height="120" as="geometry" />
        </mxCell>
        <mxCell id="BdfruFI2Bqq8TeaFG7KO-58" value="0" style="text;html=1;align=center;verticalAlign=middle;resizable=0;points=[];autosize=1;strokeColor=none;fillColor=none;" vertex="1" parent="1">
          <mxGeometry x="-90" y="240" width="30" height="30" as="geometry" />
        </mxCell>
        <mxCell id="BdfruFI2Bqq8TeaFG7KO-61" value="" style="endArrow=none;html=1;rounded=0;" edge="1" parent="1">
          <mxGeometry width="50" height="50" relative="1" as="geometry">
            <mxPoint x="74.5" y="280" as="sourcePoint" />
            <mxPoint x="74.5" y="240" as="targetPoint" />
          </mxGeometry>
        </mxCell>
        <mxCell id="BdfruFI2Bqq8TeaFG7KO-63" value="ToSquaresWithTwoMax()" style="shape=process;whiteSpace=wrap;html=1;backgroundOutline=1;" vertex="1" parent="1">
          <mxGeometry x="-60" y="280" width="270" height="50" as="geometry" />
        </mxCell>
        <mxCell id="BdfruFI2Bqq8TeaFG7KO-81" value="Table()" style="shape=process;whiteSpace=wrap;html=1;backgroundOutline=1;" vertex="1" parent="1">
          <mxGeometry x="260" y="280" width="150" height="50" as="geometry" />
        </mxCell>
        <mxCell id="BdfruFI2Bqq8TeaFG7KO-95" value="" style="endArrow=none;html=1;rounded=0;" edge="1" parent="1">
          <mxGeometry width="50" height="50" relative="1" as="geometry">
            <mxPoint x="334.5" y="280" as="sourcePoint" />
            <mxPoint x="334.5" y="240" as="targetPoint" />
          </mxGeometry>
        </mxCell>
        <mxCell id="BdfruFI2Bqq8TeaFG7KO-97" value="" style="endArrow=none;html=1;rounded=0;" edge="1" parent="1">
          <mxGeometry width="50" height="50" relative="1" as="geometry">
            <mxPoint x="500" y="280" as="sourcePoint" />
            <mxPoint x="500" y="240" as="targetPoint" />
          </mxGeometry>
        </mxCell>
        <mxCell id="BdfruFI2Bqq8TeaFG7KO-98" value="GuessedNumber(a,b)" style="shape=process;whiteSpace=wrap;html=1;backgroundOutline=1;" vertex="1" parent="1">
          <mxGeometry x="430" y="280" width="150" height="50" as="geometry" />
        </mxCell>
        <mxCell id="BdfruFI2Bqq8TeaFG7KO-113" value="" style="endArrow=none;html=1;rounded=0;" edge="1" parent="1">
          <mxGeometry width="50" height="50" relative="1" as="geometry">
            <mxPoint x="720" y="280" as="sourcePoint" />
            <mxPoint x="720" y="240" as="targetPoint" />
          </mxGeometry>
        </mxCell>
        <mxCell id="BdfruFI2Bqq8TeaFG7KO-114" value="SearchingElementsInArray()" style="shape=process;whiteSpace=wrap;html=1;backgroundOutline=1;" vertex="1" parent="1">
          <mxGeometry x="600" y="280" width="230" height="50" as="geometry" />
        </mxCell>
        <mxCell id="BdfruFI2Bqq8TeaFG7KO-115" value="" style="endArrow=none;html=1;rounded=0;" edge="1" parent="1">
          <mxGeometry width="50" height="50" relative="1" as="geometry">
            <mxPoint x="900" y="280" as="sourcePoint" />
            <mxPoint x="900" y="240" as="targetPoint" />
          </mxGeometry>
        </mxCell>
        <mxCell id="BdfruFI2Bqq8TeaFG7KO-116" value="plurals()" style="shape=process;whiteSpace=wrap;html=1;backgroundOutline=1;" vertex="1" parent="1">
          <mxGeometry x="840" y="280" width="120" height="50" as="geometry" />
        </mxCell>
        <mxCell id="BdfruFI2Bqq8TeaFG7KO-117" value="" style="endArrow=none;html=1;rounded=0;" edge="1" parent="1">
          <mxGeometry width="50" height="50" relative="1" as="geometry">
            <mxPoint x="720" y="360" as="sourcePoint" />
            <mxPoint x="720" y="330" as="targetPoint" />
          </mxGeometry>
        </mxCell>
        <mxCell id="BdfruFI2Bqq8TeaFG7KO-119" value="" style="endArrow=none;html=1;rounded=0;" edge="1" parent="1">
          <mxGeometry width="50" height="50" relative="1" as="geometry">
            <mxPoint x="500" y="360" as="sourcePoint" />
            <mxPoint x="500" y="330" as="targetPoint" />
          </mxGeometry>
        </mxCell>
        <mxCell id="BdfruFI2Bqq8TeaFG7KO-120" value="" style="endArrow=none;html=1;rounded=0;" edge="1" parent="1">
          <mxGeometry width="50" height="50" relative="1" as="geometry">
            <mxPoint x="899.5" y="360" as="sourcePoint" />
            <mxPoint x="899.5" y="330" as="targetPoint" />
          </mxGeometry>
        </mxCell>
        <mxCell id="BdfruFI2Bqq8TeaFG7KO-121" value="" style="endArrow=none;html=1;rounded=0;" edge="1" parent="1">
          <mxGeometry width="50" height="50" relative="1" as="geometry">
            <mxPoint x="334.5" y="360" as="sourcePoint" />
            <mxPoint x="334.5" y="330" as="targetPoint" />
          </mxGeometry>
        </mxCell>
        <mxCell id="BdfruFI2Bqq8TeaFG7KO-122" value="" style="endArrow=none;html=1;rounded=0;" edge="1" parent="1">
          <mxGeometry width="50" height="50" relative="1" as="geometry">
            <mxPoint x="74.5" y="360" as="sourcePoint" />
            <mxPoint x="74.5" y="330" as="targetPoint" />
          </mxGeometry>
        </mxCell>
        <mxCell id="BdfruFI2Bqq8TeaFG7KO-123" value="1" style="text;html=1;align=center;verticalAlign=middle;resizable=0;points=[];autosize=1;strokeColor=none;fillColor=none;" vertex="1" parent="1">
          <mxGeometry x="70" y="250" width="30" height="30" as="geometry" />
        </mxCell>
        <mxCell id="BdfruFI2Bqq8TeaFG7KO-124" value="2" style="text;html=1;align=center;verticalAlign=middle;resizable=0;points=[];autosize=1;strokeColor=none;fillColor=none;" vertex="1" parent="1">
          <mxGeometry x="330" y="250" width="30" height="30" as="geometry" />
        </mxCell>
        <mxCell id="BdfruFI2Bqq8TeaFG7KO-126" value="3" style="text;html=1;align=center;verticalAlign=middle;resizable=0;points=[];autosize=1;strokeColor=none;fillColor=none;" vertex="1" parent="1">
          <mxGeometry x="500" y="250" width="30" height="30" as="geometry" />
        </mxCell>
        <mxCell id="BdfruFI2Bqq8TeaFG7KO-127" value="4" style="text;html=1;align=center;verticalAlign=middle;resizable=0;points=[];autosize=1;strokeColor=none;fillColor=none;" vertex="1" parent="1">
          <mxGeometry x="720" y="250" width="30" height="30" as="geometry" />
        </mxCell>
        <mxCell id="BdfruFI2Bqq8TeaFG7KO-128" value="5" style="text;html=1;align=center;verticalAlign=middle;resizable=0;points=[];autosize=1;strokeColor=none;fillColor=none;" vertex="1" parent="1">
          <mxGeometry x="900" y="250" width="30" height="30" as="geometry" />
        </mxCell>
        <mxCell id="BdfruFI2Bqq8TeaFG7KO-129" value="else" style="text;html=1;align=center;verticalAlign=middle;resizable=0;points=[];autosize=1;strokeColor=none;fillColor=none;" vertex="1" parent="1">
          <mxGeometry x="950" y="210" width="50" height="30" as="geometry" />
        </mxCell>
        <mxCell id="BdfruFI2Bqq8TeaFG7KO-133" style="edgeStyle=orthogonalEdgeStyle;rounded=0;orthogonalLoop=1;jettySize=auto;html=1;" edge="1" parent="1" source="BdfruFI2Bqq8TeaFG7KO-130">
          <mxGeometry relative="1" as="geometry">
            <mxPoint x="440" y="120" as="targetPoint" />
            <Array as="points">
              <mxPoint x="-119" y="440" />
              <mxPoint x="-119" y="120" />
            </Array>
          </mxGeometry>
        </mxCell>
        <mxCell id="BdfruFI2Bqq8TeaFG7KO-130" value="choice != 0" style="rhombus;whiteSpace=wrap;html=1;fontSize=14;" vertex="1" parent="1">
          <mxGeometry x="351.25" y="400" width="178.75" height="80" as="geometry" />
        </mxCell>
        <mxCell id="BdfruFI2Bqq8TeaFG7KO-131" value="" style="endArrow=none;html=1;rounded=0;entryX=0.491;entryY=0.998;entryDx=0;entryDy=0;entryPerimeter=0;exitX=0.5;exitY=0;exitDx=0;exitDy=0;" edge="1" parent="1" source="BdfruFI2Bqq8TeaFG7KO-130" target="BdfruFI2Bqq8TeaFG7KO-55">
          <mxGeometry width="50" height="50" relative="1" as="geometry">
            <mxPoint x="330" y="440" as="sourcePoint" />
            <mxPoint x="380" y="390" as="targetPoint" />
          </mxGeometry>
        </mxCell>
        <mxCell id="BdfruFI2Bqq8TeaFG7KO-134" value="" style="endArrow=none;html=1;rounded=0;exitX=0.5;exitY=1;exitDx=0;exitDy=0;entryX=0.5;entryY=0;entryDx=0;entryDy=0;" edge="1" parent="1" source="BdfruFI2Bqq8TeaFG7KO-130" target="BdfruFI2Bqq8TeaFG7KO-135">
          <mxGeometry width="50" height="50" relative="1" as="geometry">
            <mxPoint x="420" y="380" as="sourcePoint" />
            <mxPoint x="441" y="520" as="targetPoint" />
          </mxGeometry>
        </mxCell>
        <mxCell id="BdfruFI2Bqq8TeaFG7KO-135" value="Кінець" style="rounded=1;whiteSpace=wrap;html=1;arcSize=50;" vertex="1" parent="1">
          <mxGeometry x="380.63" y="500" width="120" height="60" as="geometry" />
        </mxCell>
      </root>
    </mxGraphModel>
  </diagram>
  <diagram id="C5RBs43oDa-KdzZeNtuy" name="findTheMaxValFromArray">
    <mxGraphModel dx="2049" dy="1084" grid="1" gridSize="10" guides="1" tooltips="1" connect="1" arrows="1" fold="1" page="1" pageScale="1" pageWidth="827" pageHeight="1169" math="0" shadow="0">
      <root>
        <mxCell id="WIyWlLk6GJQsqaUBKTNV-0" />
        <mxCell id="WIyWlLk6GJQsqaUBKTNV-1" parent="WIyWlLk6GJQsqaUBKTNV-0" />
        <mxCell id="sj-cVLMgBkEptS6cOeS1-0" value="Початок" style="rounded=1;whiteSpace=wrap;html=1;arcSize=50;fontSize=14;" vertex="1" parent="WIyWlLk6GJQsqaUBKTNV-1">
          <mxGeometry x="354" y="30" width="120" height="60" as="geometry" />
        </mxCell>
        <mxCell id="sj-cVLMgBkEptS6cOeS1-3" value="" style="endArrow=none;html=1;rounded=0;exitX=0.5;exitY=1;exitDx=0;exitDy=0;entryX=0.5;entryY=0;entryDx=0;entryDy=0;fontSize=14;" edge="1" parent="WIyWlLk6GJQsqaUBKTNV-1" source="sj-cVLMgBkEptS6cOeS1-0" target="sj-cVLMgBkEptS6cOeS1-4">
          <mxGeometry width="50" height="50" relative="1" as="geometry">
            <mxPoint x="400" y="420" as="sourcePoint" />
            <mxPoint x="513.3333333333333" y="380" as="targetPoint" />
          </mxGeometry>
        </mxCell>
        <mxCell id="sj-cVLMgBkEptS6cOeS1-6" style="edgeStyle=orthogonalEdgeStyle;rounded=0;orthogonalLoop=1;jettySize=auto;html=1;entryX=0.5;entryY=0;entryDx=0;entryDy=0;fontSize=14;" edge="1" parent="WIyWlLk6GJQsqaUBKTNV-1" source="sj-cVLMgBkEptS6cOeS1-4" target="sj-cVLMgBkEptS6cOeS1-5">
          <mxGeometry relative="1" as="geometry" />
        </mxCell>
        <mxCell id="sj-cVLMgBkEptS6cOeS1-4" value="max1 = array[0], max2 = array[1], temp" style="rounded=0;whiteSpace=wrap;html=1;fontSize=14;" vertex="1" parent="WIyWlLk6GJQsqaUBKTNV-1">
          <mxGeometry x="234" y="120" width="360" height="40" as="geometry" />
        </mxCell>
        <mxCell id="sj-cVLMgBkEptS6cOeS1-7" style="edgeStyle=orthogonalEdgeStyle;rounded=0;orthogonalLoop=1;jettySize=auto;html=1;entryX=0.5;entryY=0;entryDx=0;entryDy=0;fontSize=14;" edge="1" parent="WIyWlLk6GJQsqaUBKTNV-1" source="sj-cVLMgBkEptS6cOeS1-5" target="sj-cVLMgBkEptS6cOeS1-8">
          <mxGeometry relative="1" as="geometry">
            <mxPoint x="414" y="350" as="targetPoint" />
          </mxGeometry>
        </mxCell>
        <mxCell id="sj-cVLMgBkEptS6cOeS1-14" style="edgeStyle=orthogonalEdgeStyle;rounded=0;orthogonalLoop=1;jettySize=auto;html=1;fontSize=14;" edge="1" parent="WIyWlLk6GJQsqaUBKTNV-1" source="sj-cVLMgBkEptS6cOeS1-5">
          <mxGeometry relative="1" as="geometry">
            <mxPoint x="414" y="410" as="targetPoint" />
            <Array as="points">
              <mxPoint x="581" y="255" />
            </Array>
          </mxGeometry>
        </mxCell>
        <mxCell id="sj-cVLMgBkEptS6cOeS1-5" value="max1&amp;lt; max2" style="rhombus;whiteSpace=wrap;html=1;fontSize=14;" vertex="1" parent="WIyWlLk6GJQsqaUBKTNV-1">
          <mxGeometry x="319" y="190" width="190" height="130" as="geometry" />
        </mxCell>
        <mxCell id="sj-cVLMgBkEptS6cOeS1-8" value="swap(&amp;amp;max1, &amp;amp;max2)" style="rounded=0;whiteSpace=wrap;html=1;fontSize=14;" vertex="1" parent="WIyWlLk6GJQsqaUBKTNV-1">
          <mxGeometry x="304" y="350" width="220" height="40" as="geometry" />
        </mxCell>
        <mxCell id="sj-cVLMgBkEptS6cOeS1-9" value="" style="endArrow=none;html=1;rounded=0;entryX=0.5;entryY=0;entryDx=0;entryDy=0;exitX=0.5;exitY=1;exitDx=0;exitDy=0;fontSize=14;" edge="1" parent="WIyWlLk6GJQsqaUBKTNV-1" source="sj-cVLMgBkEptS6cOeS1-12" target="sj-cVLMgBkEptS6cOeS1-11">
          <mxGeometry width="50" height="50" relative="1" as="geometry">
            <mxPoint x="420" y="480" as="sourcePoint" />
            <mxPoint x="414" y="430" as="targetPoint" />
          </mxGeometry>
        </mxCell>
        <mxCell id="sj-cVLMgBkEptS6cOeS1-17" style="edgeStyle=orthogonalEdgeStyle;rounded=0;orthogonalLoop=1;jettySize=auto;html=1;entryX=0.5;entryY=0;entryDx=0;entryDy=0;fontSize=14;" edge="1" parent="WIyWlLk6GJQsqaUBKTNV-1" source="sj-cVLMgBkEptS6cOeS1-11" target="sj-cVLMgBkEptS6cOeS1-18">
          <mxGeometry relative="1" as="geometry">
            <mxPoint x="570" y="660" as="targetPoint" />
          </mxGeometry>
        </mxCell>
        <mxCell id="sj-cVLMgBkEptS6cOeS1-25" style="edgeStyle=orthogonalEdgeStyle;rounded=0;orthogonalLoop=1;jettySize=auto;html=1;entryX=0.5;entryY=0;entryDx=0;entryDy=0;fontSize=14;" edge="1" parent="WIyWlLk6GJQsqaUBKTNV-1" source="sj-cVLMgBkEptS6cOeS1-11" target="sj-cVLMgBkEptS6cOeS1-27">
          <mxGeometry relative="1" as="geometry">
            <mxPoint x="240" y="650" as="targetPoint" />
          </mxGeometry>
        </mxCell>
        <mxCell id="sj-cVLMgBkEptS6cOeS1-11" value="array[i] &amp;gt; max1" style="rhombus;whiteSpace=wrap;html=1;fontSize=14;" vertex="1" parent="WIyWlLk6GJQsqaUBKTNV-1">
          <mxGeometry x="319" y="500" width="190" height="130" as="geometry" />
        </mxCell>
        <mxCell id="sj-cVLMgBkEptS6cOeS1-12" value="i = 2; i &amp;lt; size; i++" style="shape=hexagon;perimeter=hexagonPerimeter2;whiteSpace=wrap;html=1;fixedSize=1;fontSize=14;" vertex="1" parent="WIyWlLk6GJQsqaUBKTNV-1">
          <mxGeometry x="286" y="430" width="256" height="40" as="geometry" />
        </mxCell>
        <mxCell id="sj-cVLMgBkEptS6cOeS1-13" value="" style="endArrow=none;html=1;rounded=0;exitX=0.5;exitY=1;exitDx=0;exitDy=0;entryX=0.5;entryY=0;entryDx=0;entryDy=0;fontSize=14;" edge="1" parent="WIyWlLk6GJQsqaUBKTNV-1" source="sj-cVLMgBkEptS6cOeS1-8" target="sj-cVLMgBkEptS6cOeS1-12">
          <mxGeometry width="50" height="50" relative="1" as="geometry">
            <mxPoint x="430" y="490" as="sourcePoint" />
            <mxPoint x="440" y="410" as="targetPoint" />
          </mxGeometry>
        </mxCell>
        <mxCell id="sj-cVLMgBkEptS6cOeS1-15" value="no" style="text;html=1;align=center;verticalAlign=middle;resizable=0;points=[];autosize=1;strokeColor=none;fillColor=none;fontSize=14;" vertex="1" parent="WIyWlLk6GJQsqaUBKTNV-1">
          <mxGeometry x="510" y="228" width="40" height="30" as="geometry" />
        </mxCell>
        <mxCell id="sj-cVLMgBkEptS6cOeS1-16" value="yes" style="text;html=1;align=center;verticalAlign=middle;resizable=0;points=[];autosize=1;strokeColor=none;fillColor=none;fontSize=14;" vertex="1" parent="WIyWlLk6GJQsqaUBKTNV-1">
          <mxGeometry x="420" y="320" width="40" height="30" as="geometry" />
        </mxCell>
        <mxCell id="sj-cVLMgBkEptS6cOeS1-19" style="edgeStyle=orthogonalEdgeStyle;rounded=0;orthogonalLoop=1;jettySize=auto;html=1;fontSize=14;" edge="1" parent="WIyWlLk6GJQsqaUBKTNV-1" source="sj-cVLMgBkEptS6cOeS1-18">
          <mxGeometry relative="1" as="geometry">
            <mxPoint x="610" y="880" as="targetPoint" />
            <Array as="points">
              <mxPoint x="721" y="705" />
            </Array>
          </mxGeometry>
        </mxCell>
        <mxCell id="sj-cVLMgBkEptS6cOeS1-20" style="edgeStyle=orthogonalEdgeStyle;rounded=0;orthogonalLoop=1;jettySize=auto;html=1;entryX=0.5;entryY=0;entryDx=0;entryDy=0;fontSize=14;" edge="1" parent="WIyWlLk6GJQsqaUBKTNV-1" source="sj-cVLMgBkEptS6cOeS1-18" target="sj-cVLMgBkEptS6cOeS1-21">
          <mxGeometry relative="1" as="geometry">
            <mxPoint x="605" y="800" as="targetPoint" />
          </mxGeometry>
        </mxCell>
        <mxCell id="sj-cVLMgBkEptS6cOeS1-18" value="array[i] &amp;gt; max1" style="rhombus;whiteSpace=wrap;html=1;fontSize=14;" vertex="1" parent="WIyWlLk6GJQsqaUBKTNV-1">
          <mxGeometry x="510" y="640" width="190" height="130" as="geometry" />
        </mxCell>
        <mxCell id="sj-cVLMgBkEptS6cOeS1-21" value="max2 = array[i]" style="rounded=0;whiteSpace=wrap;html=1;fontSize=14;" vertex="1" parent="WIyWlLk6GJQsqaUBKTNV-1">
          <mxGeometry x="545" y="790" width="125" height="40" as="geometry" />
        </mxCell>
        <mxCell id="sj-cVLMgBkEptS6cOeS1-22" value="no" style="text;html=1;align=center;verticalAlign=middle;resizable=0;points=[];autosize=1;strokeColor=none;fillColor=none;fontSize=14;" vertex="1" parent="WIyWlLk6GJQsqaUBKTNV-1">
          <mxGeometry x="520" y="528" width="40" height="30" as="geometry" />
        </mxCell>
        <mxCell id="sj-cVLMgBkEptS6cOeS1-23" value="no" style="text;html=1;align=center;verticalAlign=middle;resizable=0;points=[];autosize=1;strokeColor=none;fillColor=none;fontSize=14;" vertex="1" parent="WIyWlLk6GJQsqaUBKTNV-1">
          <mxGeometry x="680" y="668" width="40" height="30" as="geometry" />
        </mxCell>
        <mxCell id="sj-cVLMgBkEptS6cOeS1-24" value="&lt;div style=&quot;font-size: 14px;&quot;&gt;yes&lt;/div&gt;" style="text;html=1;align=center;verticalAlign=middle;resizable=0;points=[];autosize=1;strokeColor=none;fillColor=none;fontSize=14;" vertex="1" parent="WIyWlLk6GJQsqaUBKTNV-1">
          <mxGeometry x="610" y="758" width="40" height="30" as="geometry" />
        </mxCell>
        <mxCell id="sj-cVLMgBkEptS6cOeS1-27" value="max2 = max1" style="rounded=0;whiteSpace=wrap;html=1;fontSize=14;" vertex="1" parent="WIyWlLk6GJQsqaUBKTNV-1">
          <mxGeometry x="179" y="640" width="125" height="40" as="geometry" />
        </mxCell>
        <mxCell id="sj-cVLMgBkEptS6cOeS1-28" value="" style="endArrow=none;html=1;rounded=0;exitX=0.5;exitY=1;exitDx=0;exitDy=0;entryX=0.5;entryY=0;entryDx=0;entryDy=0;fontSize=14;" edge="1" parent="WIyWlLk6GJQsqaUBKTNV-1" source="sj-cVLMgBkEptS6cOeS1-27" target="sj-cVLMgBkEptS6cOeS1-29">
          <mxGeometry width="50" height="50" relative="1" as="geometry">
            <mxPoint x="390" y="710" as="sourcePoint" />
            <mxPoint x="242" y="720" as="targetPoint" />
          </mxGeometry>
        </mxCell>
        <mxCell id="sj-cVLMgBkEptS6cOeS1-29" value="max1 = array[i]" style="rounded=0;whiteSpace=wrap;html=1;fontSize=14;" vertex="1" parent="WIyWlLk6GJQsqaUBKTNV-1">
          <mxGeometry x="179" y="698" width="125" height="40" as="geometry" />
        </mxCell>
        <mxCell id="sj-cVLMgBkEptS6cOeS1-30" value="" style="endArrow=none;html=1;rounded=0;exitX=0.5;exitY=1;exitDx=0;exitDy=0;entryX=0.5;entryY=1;entryDx=0;entryDy=0;fontSize=14;" edge="1" parent="WIyWlLk6GJQsqaUBKTNV-1" source="sj-cVLMgBkEptS6cOeS1-29" target="sj-cVLMgBkEptS6cOeS1-21">
          <mxGeometry width="50" height="50" relative="1" as="geometry">
            <mxPoint x="390" y="710" as="sourcePoint" />
            <mxPoint x="440" y="660" as="targetPoint" />
            <Array as="points">
              <mxPoint x="240" y="920" />
              <mxPoint x="608" y="920" />
            </Array>
          </mxGeometry>
        </mxCell>
        <mxCell id="sj-cVLMgBkEptS6cOeS1-31" value="yes" style="text;html=1;align=center;verticalAlign=middle;resizable=0;points=[];autosize=1;strokeColor=none;fillColor=none;fontSize=14;" vertex="1" parent="WIyWlLk6GJQsqaUBKTNV-1">
          <mxGeometry x="270" y="528" width="40" height="30" as="geometry" />
        </mxCell>
        <mxCell id="sj-cVLMgBkEptS6cOeS1-32" value="" style="endArrow=classic;html=1;rounded=0;entryX=0;entryY=0.5;entryDx=0;entryDy=0;fontSize=14;" edge="1" parent="WIyWlLk6GJQsqaUBKTNV-1" target="sj-cVLMgBkEptS6cOeS1-12">
          <mxGeometry width="50" height="50" relative="1" as="geometry">
            <mxPoint x="440" y="920" as="sourcePoint" />
            <mxPoint x="440" y="660" as="targetPoint" />
            <Array as="points">
              <mxPoint x="440" y="960" />
              <mxPoint x="160" y="960" />
              <mxPoint x="160" y="450" />
            </Array>
          </mxGeometry>
        </mxCell>
        <mxCell id="sj-cVLMgBkEptS6cOeS1-33" value="" style="endArrow=none;html=1;rounded=0;exitX=1;exitY=0.5;exitDx=0;exitDy=0;entryX=0.5;entryY=0;entryDx=0;entryDy=0;fontSize=14;" edge="1" parent="WIyWlLk6GJQsqaUBKTNV-1" source="sj-cVLMgBkEptS6cOeS1-12" target="sj-cVLMgBkEptS6cOeS1-35">
          <mxGeometry width="50" height="50" relative="1" as="geometry">
            <mxPoint x="530" y="580" as="sourcePoint" />
            <mxPoint x="440" y="1040" as="targetPoint" />
            <Array as="points">
              <mxPoint x="760" y="450" />
              <mxPoint x="760" y="1000" />
              <mxPoint x="440" y="1000" />
            </Array>
          </mxGeometry>
        </mxCell>
        <mxCell id="sj-cVLMgBkEptS6cOeS1-35" value="кінець" style="rounded=1;whiteSpace=wrap;html=1;arcSize=50;fontSize=14;" vertex="1" parent="WIyWlLk6GJQsqaUBKTNV-1">
          <mxGeometry x="380" y="1020" width="120" height="60" as="geometry" />
        </mxCell>
      </root>
    </mxGraphModel>
  </diagram>
  <diagram id="uiikEmGBmzvUz85wekdK" name="ToSquaresWithTwoMax">
    <mxGraphModel dx="2284" dy="759" grid="1" gridSize="10" guides="1" tooltips="1" connect="1" arrows="1" fold="1" page="1" pageScale="1" pageWidth="850" pageHeight="1100" math="0" shadow="0">
      <root>
        <mxCell id="0" />
        <mxCell id="1" parent="0" />
        <mxCell id="4RpzB7YWfvMPzIZ0Dtz0-1" style="edgeStyle=none;rounded=0;orthogonalLoop=1;jettySize=auto;html=1;fontSize=14;" edge="1" parent="1" source="4RpzB7YWfvMPzIZ0Dtz0-2" target="4RpzB7YWfvMPzIZ0Dtz0-4">
          <mxGeometry relative="1" as="geometry" />
        </mxCell>
        <mxCell id="4RpzB7YWfvMPzIZ0Dtz0-2" value="початок" style="rounded=1;whiteSpace=wrap;html=1;arcSize=50;fontSize=14;" vertex="1" parent="1">
          <mxGeometry x="320" y="90" width="150" height="70" as="geometry" />
        </mxCell>
        <mxCell id="4RpzB7YWfvMPzIZ0Dtz0-3" style="edgeStyle=none;rounded=0;orthogonalLoop=1;jettySize=auto;html=1;entryX=0.496;entryY=0.593;entryDx=0;entryDy=0;entryPerimeter=0;fontSize=14;" edge="1" parent="1" source="4RpzB7YWfvMPzIZ0Dtz0-4" target="4RpzB7YWfvMPzIZ0Dtz0-5">
          <mxGeometry relative="1" as="geometry" />
        </mxCell>
        <mxCell id="4RpzB7YWfvMPzIZ0Dtz0-4" value="choice" style="rhombus;whiteSpace=wrap;html=1;fontSize=14;" vertex="1" parent="1">
          <mxGeometry x="330" y="210" width="130" height="70" as="geometry" />
        </mxCell>
        <mxCell id="4RpzB7YWfvMPzIZ0Dtz0-5" value="" style="line;strokeWidth=2;html=1;fontSize=14;" vertex="1" parent="1">
          <mxGeometry x="47.5" y="310" width="702.5" height="20" as="geometry" />
        </mxCell>
        <mxCell id="4RpzB7YWfvMPzIZ0Dtz0-6" value="" style="line;strokeWidth=2;direction=south;html=1;fontSize=14;" vertex="1" parent="1">
          <mxGeometry x="742.5" y="320" width="17.5" height="200" as="geometry" />
        </mxCell>
        <mxCell id="4RpzB7YWfvMPzIZ0Dtz0-7" value="(choiceLine == &#39;y&#39;) ? inputOneLine(size,array) : inputSeparately(size,array)" style="rounded=0;whiteSpace=wrap;html=1;fontSize=14;" vertex="1" parent="1">
          <mxGeometry x="260" y="350" width="460" height="60" as="geometry" />
        </mxCell>
        <mxCell id="4RpzB7YWfvMPzIZ0Dtz0-8" value="" style="orthogonalLoop=1;jettySize=auto;html=1;rounded=0;elbow=vertical;strokeWidth=1;endArrow=classicThin;endFill=1;endSize=0;exitX=0.75;exitY=0.5;exitDx=0;exitDy=0;exitPerimeter=0;entryX=0.684;entryY=0.017;entryDx=0;entryDy=0;entryPerimeter=0;fontSize=14;" edge="1" parent="1" source="4RpzB7YWfvMPzIZ0Dtz0-5" target="4RpzB7YWfvMPzIZ0Dtz0-7">
          <mxGeometry width="100" relative="1" as="geometry">
            <mxPoint x="230" y="290" as="sourcePoint" />
            <mxPoint x="330" y="290" as="targetPoint" />
          </mxGeometry>
        </mxCell>
        <mxCell id="4RpzB7YWfvMPzIZ0Dtz0-9" value="" style="orthogonalLoop=1;jettySize=auto;html=1;rounded=0;elbow=vertical;strokeWidth=1;endArrow=classicThin;endFill=1;endSize=0;entryX=0.684;entryY=1.026;entryDx=0;entryDy=0;entryPerimeter=0;exitX=0.5;exitY=0;exitDx=0;exitDy=0;fontSize=14;" edge="1" parent="1" source="4RpzB7YWfvMPzIZ0Dtz0-10">
          <mxGeometry width="100" relative="1" as="geometry">
            <mxPoint x="575" y="438.44" as="sourcePoint" />
            <mxPoint x="574.6399999999999" y="410.00000000000006" as="targetPoint" />
          </mxGeometry>
        </mxCell>
        <mxCell id="4RpzB7YWfvMPzIZ0Dtz0-10" value="i = 0; i &amp;lt; size ; i++" style="shape=hexagon;perimeter=hexagonPerimeter2;whiteSpace=wrap;html=1;fixedSize=1;fontSize=14;" vertex="1" parent="1">
          <mxGeometry x="490" y="440" width="170" height="30" as="geometry" />
        </mxCell>
        <mxCell id="4RpzB7YWfvMPzIZ0Dtz0-11" value="" style="orthogonalLoop=1;jettySize=auto;html=1;rounded=0;elbow=vertical;strokeWidth=1;endArrow=classicThin;endFill=1;endSize=0;exitX=0;exitY=0.5;exitDx=0;exitDy=0;entryX=0.5;entryY=1;entryDx=0;entryDy=0;fontSize=14;" edge="1" parent="1" source="4RpzB7YWfvMPzIZ0Dtz0-10" target="4RpzB7YWfvMPzIZ0Dtz0-10">
          <mxGeometry width="100" relative="1" as="geometry">
            <mxPoint x="594" y="340" as="sourcePoint" />
            <mxPoint x="595" y="371" as="targetPoint" />
            <Array as="points">
              <mxPoint x="460" y="455" />
              <mxPoint x="460" y="490" />
              <mxPoint x="575" y="490" />
            </Array>
          </mxGeometry>
        </mxCell>
        <mxCell id="4RpzB7YWfvMPzIZ0Dtz0-12" value="" style="orthogonalLoop=1;jettySize=auto;html=1;rounded=0;elbow=vertical;strokeWidth=1;endArrow=classicThin;endFill=1;endSize=0;entryX=1;entryY=0.5;entryDx=0;entryDy=0;exitX=0.879;exitY=0.55;exitDx=0;exitDy=0;exitPerimeter=0;fontSize=14;" edge="1" parent="1" source="4RpzB7YWfvMPzIZ0Dtz0-14" target="4RpzB7YWfvMPzIZ0Dtz0-10">
          <mxGeometry width="100" relative="1" as="geometry">
            <mxPoint x="680" y="480" as="sourcePoint" />
            <mxPoint x="605" y="381" as="targetPoint" />
            <Array as="points">
              <mxPoint x="680" y="455" />
            </Array>
          </mxGeometry>
        </mxCell>
        <mxCell id="4RpzB7YWfvMPzIZ0Dtz0-13" value="" style="line;strokeWidth=2;direction=south;html=1;fontSize=14;" vertex="1" parent="1">
          <mxGeometry x="40" y="320" width="17.5" height="50" as="geometry" />
        </mxCell>
        <mxCell id="4RpzB7YWfvMPzIZ0Dtz0-14" value="" style="line;strokeWidth=2;html=1;fontSize=14;" vertex="1" parent="1">
          <mxGeometry x="170" y="510" width="580" height="20" as="geometry" />
        </mxCell>
        <mxCell id="4RpzB7YWfvMPzIZ0Dtz0-15" value="" style="line;strokeWidth=2;direction=south;html=1;fontSize=14;" vertex="1" parent="1">
          <mxGeometry x="40" y="520" width="17.5" as="geometry" />
        </mxCell>
        <mxCell id="4RpzB7YWfvMPzIZ0Dtz0-16" value="" style="orthogonalLoop=1;jettySize=auto;html=1;rounded=0;elbow=vertical;strokeWidth=1;endArrow=classicThin;endFill=1;endSize=0;entryX=0.5;entryY=0;entryDx=0;entryDy=0;exitX=0.558;exitY=0.564;exitDx=0;exitDy=0;exitPerimeter=0;fontSize=14;" edge="1" parent="1" source="4RpzB7YWfvMPzIZ0Dtz0-14" target="4RpzB7YWfvMPzIZ0Dtz0-17">
          <mxGeometry width="100" relative="1" as="geometry">
            <mxPoint x="440.36" y="580" as="sourcePoint" />
            <mxPoint x="439.9999999999999" y="550" as="targetPoint" />
          </mxGeometry>
        </mxCell>
        <mxCell id="4RpzB7YWfvMPzIZ0Dtz0-17" value="i = 0; i &amp;lt; size ; i++" style="shape=hexagon;perimeter=hexagonPerimeter2;whiteSpace=wrap;html=1;fixedSize=1;fontSize=14;" vertex="1" parent="1">
          <mxGeometry x="350" y="550" width="180" height="30" as="geometry" />
        </mxCell>
        <mxCell id="4RpzB7YWfvMPzIZ0Dtz0-18" value="" style="orthogonalLoop=1;jettySize=auto;html=1;rounded=0;elbow=vertical;strokeWidth=1;endArrow=classicThin;endFill=1;endSize=0;exitX=0.5;exitY=1;exitDx=0;exitDy=0;entryX=0.5;entryY=0;entryDx=0;entryDy=0;fontSize=14;" edge="1" parent="1" source="4RpzB7YWfvMPzIZ0Dtz0-17" target="4RpzB7YWfvMPzIZ0Dtz0-19">
          <mxGeometry width="100" relative="1" as="geometry">
            <mxPoint x="430.36" y="630" as="sourcePoint" />
            <mxPoint x="440" y="600" as="targetPoint" />
          </mxGeometry>
        </mxCell>
        <mxCell id="4RpzB7YWfvMPzIZ0Dtz0-19" value="array[i] &amp;gt; 0" style="rhombus;whiteSpace=wrap;html=1;fontSize=14;" vertex="1" parent="1">
          <mxGeometry x="390" y="600" width="100" height="80" as="geometry" />
        </mxCell>
        <mxCell id="4RpzB7YWfvMPzIZ0Dtz0-20" value="" style="orthogonalLoop=1;jettySize=auto;html=1;rounded=0;elbow=vertical;strokeWidth=1;endArrow=classicThin;endFill=1;endSize=0;exitX=1;exitY=0.5;exitDx=0;exitDy=0;fontSize=14;" edge="1" parent="1" source="4RpzB7YWfvMPzIZ0Dtz0-19">
          <mxGeometry width="100" relative="1" as="geometry">
            <mxPoint x="520" y="640" as="sourcePoint" />
            <mxPoint x="440" y="740" as="targetPoint" />
            <Array as="points">
              <mxPoint x="560" y="640" />
              <mxPoint x="560" y="740" />
            </Array>
          </mxGeometry>
        </mxCell>
        <mxCell id="4RpzB7YWfvMPzIZ0Dtz0-21" value="ні" style="edgeLabel;html=1;align=center;verticalAlign=middle;resizable=0;points=[];fontSize=14;" vertex="1" connectable="0" parent="4RpzB7YWfvMPzIZ0Dtz0-20">
          <mxGeometry x="-0.6832" y="-2" relative="1" as="geometry">
            <mxPoint x="4" y="-12" as="offset" />
          </mxGeometry>
        </mxCell>
        <mxCell id="4RpzB7YWfvMPzIZ0Dtz0-22" value="" style="orthogonalLoop=1;jettySize=auto;html=1;rounded=0;elbow=vertical;strokeWidth=1;endArrow=classicThin;endFill=1;endSize=0;exitX=0.5;exitY=1;exitDx=0;exitDy=0;entryX=0.5;entryY=0;entryDx=0;entryDy=0;fontSize=14;" edge="1" parent="1" source="4RpzB7YWfvMPzIZ0Dtz0-19" target="4RpzB7YWfvMPzIZ0Dtz0-23">
          <mxGeometry width="100" relative="1" as="geometry">
            <mxPoint x="439.5" y="690" as="sourcePoint" />
            <mxPoint x="440" y="700" as="targetPoint" />
          </mxGeometry>
        </mxCell>
        <mxCell id="4RpzB7YWfvMPzIZ0Dtz0-23" value="array[i] = array[i]*array[i]" style="rounded=0;whiteSpace=wrap;html=1;fontSize=14;" vertex="1" parent="1">
          <mxGeometry x="350" y="700" width="180" height="20" as="geometry" />
        </mxCell>
        <mxCell id="4RpzB7YWfvMPzIZ0Dtz0-24" value="" style="orthogonalLoop=1;jettySize=auto;html=1;rounded=0;elbow=vertical;strokeWidth=1;endArrow=classicThin;endFill=1;endSize=0;exitX=0.5;exitY=1;exitDx=0;exitDy=0;entryX=0;entryY=0.5;entryDx=0;entryDy=0;fontSize=14;" edge="1" parent="1" target="4RpzB7YWfvMPzIZ0Dtz0-17">
          <mxGeometry width="100" relative="1" as="geometry">
            <mxPoint x="439.91" y="720" as="sourcePoint" />
            <mxPoint x="320" y="640" as="targetPoint" />
            <Array as="points">
              <mxPoint x="440" y="760" />
              <mxPoint x="320" y="760" />
              <mxPoint x="320" y="565" />
            </Array>
          </mxGeometry>
        </mxCell>
        <mxCell id="4RpzB7YWfvMPzIZ0Dtz0-25" value="" style="orthogonalLoop=1;jettySize=auto;html=1;rounded=0;elbow=vertical;strokeWidth=1;endArrow=classicThin;endFill=1;endSize=0;exitX=1;exitY=0.5;exitDx=0;exitDy=0;entryX=0.5;entryY=0;entryDx=0;entryDy=0;fontSize=14;" edge="1" parent="1" source="4RpzB7YWfvMPzIZ0Dtz0-17" target="4RpzB7YWfvMPzIZ0Dtz0-26">
          <mxGeometry width="100" relative="1" as="geometry">
            <mxPoint x="590" y="590" as="sourcePoint" />
            <mxPoint x="440" y="800" as="targetPoint" />
            <Array as="points">
              <mxPoint x="640" y="565" />
              <mxPoint x="640" y="780" />
              <mxPoint x="440" y="780" />
            </Array>
          </mxGeometry>
        </mxCell>
        <mxCell id="4RpzB7YWfvMPzIZ0Dtz0-26" value="&lt;div style=&quot;font-size: 14px;&quot;&gt;findTheMaxValFromArray(size, array)&lt;/div&gt;" style="rounded=0;whiteSpace=wrap;html=1;fontSize=14;" vertex="1" parent="1">
          <mxGeometry x="310" y="810" width="260" height="60" as="geometry" />
        </mxCell>
        <mxCell id="4RpzB7YWfvMPzIZ0Dtz0-27" value="" style="orthogonalLoop=1;jettySize=auto;html=1;rounded=0;elbow=vertical;strokeWidth=1;endArrow=classicThin;endFill=1;endSize=0;exitX=0.5;exitY=1;exitDx=0;exitDy=0;fontSize=14;" edge="1" parent="1" source="4RpzB7YWfvMPzIZ0Dtz0-26">
          <mxGeometry width="100" relative="1" as="geometry">
            <mxPoint x="450" y="880" as="sourcePoint" />
            <mxPoint x="440" y="910" as="targetPoint" />
          </mxGeometry>
        </mxCell>
        <mxCell id="4RpzB7YWfvMPzIZ0Dtz0-28" value="Кінець" style="rounded=1;whiteSpace=wrap;html=1;arcSize=50;fontSize=14;" vertex="1" parent="1">
          <mxGeometry x="380" y="890" width="120" height="60" as="geometry" />
        </mxCell>
        <mxCell id="4RpzB7YWfvMPzIZ0Dtz0-29" value="&#39;y&#39;" style="text;html=1;align=center;verticalAlign=middle;resizable=0;points=[];autosize=1;strokeColor=none;fillColor=none;fontSize=14;" vertex="1" parent="1">
          <mxGeometry x="40" y="318" width="40" height="30" as="geometry" />
        </mxCell>
        <mxCell id="4RpzB7YWfvMPzIZ0Dtz0-30" value="&#39;y&#39;" style="text;html=1;align=center;verticalAlign=middle;resizable=0;points=[];autosize=1;strokeColor=none;fillColor=none;fontSize=14;" vertex="1" parent="1">
          <mxGeometry x="580" y="318" width="40" height="30" as="geometry" />
        </mxCell>
        <mxCell id="4RpzB7YWfvMPzIZ0Dtz0-31" value="так" style="text;html=1;align=center;verticalAlign=middle;resizable=0;points=[];autosize=1;strokeColor=none;fillColor=none;fontSize=14;" vertex="1" parent="1">
          <mxGeometry x="430" y="670" width="40" height="30" as="geometry" />
        </mxCell>
        <mxCell id="4RpzB7YWfvMPzIZ0Dtz0-32" value="інакше" style="text;html=1;align=center;verticalAlign=middle;resizable=0;points=[];autosize=1;strokeColor=none;fillColor=none;fontSize=14;" vertex="1" parent="1">
          <mxGeometry x="745" y="320" width="70" height="30" as="geometry" />
        </mxCell>
        <mxCell id="4RpzB7YWfvMPzIZ0Dtz0-33" style="edgeStyle=orthogonalEdgeStyle;rounded=0;orthogonalLoop=1;jettySize=auto;html=1;exitX=1;exitY=0.5;exitDx=0;exitDy=0;entryX=0;entryY=0.5;entryDx=0;entryDy=0;entryPerimeter=0;fontSize=14;" edge="1" parent="1" source="4RpzB7YWfvMPzIZ0Dtz0-34" target="4RpzB7YWfvMPzIZ0Dtz0-14">
          <mxGeometry relative="1" as="geometry">
            <mxPoint x="170" y="510" as="targetPoint" />
            <Array as="points">
              <mxPoint x="160" y="385" />
              <mxPoint x="160" y="520" />
            </Array>
          </mxGeometry>
        </mxCell>
        <mxCell id="4RpzB7YWfvMPzIZ0Dtz0-34" value="i = 0; i &amp;lt; size ; i++" style="shape=hexagon;perimeter=hexagonPerimeter2;whiteSpace=wrap;html=1;fixedSize=1;fontSize=14;" vertex="1" parent="1">
          <mxGeometry x="-36.25" y="370" width="170" height="30" as="geometry" />
        </mxCell>
        <mxCell id="4RpzB7YWfvMPzIZ0Dtz0-35" style="edgeStyle=orthogonalEdgeStyle;rounded=0;orthogonalLoop=1;jettySize=auto;html=1;entryX=0;entryY=0.5;entryDx=0;entryDy=0;fontSize=14;" edge="1" parent="1" source="4RpzB7YWfvMPzIZ0Dtz0-36" target="4RpzB7YWfvMPzIZ0Dtz0-34">
          <mxGeometry relative="1" as="geometry">
            <mxPoint x="-70" y="380" as="targetPoint" />
            <Array as="points">
              <mxPoint x="49" y="490" />
              <mxPoint x="-69" y="490" />
              <mxPoint x="-69" y="385" />
            </Array>
          </mxGeometry>
        </mxCell>
        <mxCell id="4RpzB7YWfvMPzIZ0Dtz0-36" value="array[i] = randNums()" style="rounded=0;whiteSpace=wrap;html=1;fontSize=14;" vertex="1" parent="1">
          <mxGeometry x="-31.87" y="420" width="161.25" height="30" as="geometry" />
        </mxCell>
        <mxCell id="4RpzB7YWfvMPzIZ0Dtz0-37" value="" style="endArrow=none;html=1;rounded=0;exitX=0.5;exitY=1;exitDx=0;exitDy=0;entryX=0.5;entryY=0;entryDx=0;entryDy=0;fontSize=14;" edge="1" parent="1" source="4RpzB7YWfvMPzIZ0Dtz0-34" target="4RpzB7YWfvMPzIZ0Dtz0-36">
          <mxGeometry width="50" height="50" relative="1" as="geometry">
            <mxPoint x="270" y="570" as="sourcePoint" />
            <mxPoint x="320" y="520" as="targetPoint" />
          </mxGeometry>
        </mxCell>
      </root>
    </mxGraphModel>
  </diagram>
  <diagram id="DMqJkp0y84c5QbwGVqs1" name="swap">
    <mxGraphModel dx="1434" dy="759" grid="1" gridSize="10" guides="1" tooltips="1" connect="1" arrows="1" fold="1" page="1" pageScale="1" pageWidth="850" pageHeight="1100" math="0" shadow="0">
      <root>
        <mxCell id="0" />
        <mxCell id="1" parent="0" />
        <mxCell id="NQ8pqta2iU1uFQzpnlFg-1" value="Початок" style="rounded=1;whiteSpace=wrap;html=1;arcSize=50;fontSize=14;" vertex="1" parent="1">
          <mxGeometry x="370" y="20" width="120" height="60" as="geometry" />
        </mxCell>
        <mxCell id="7hP5fBD492NFpeidsuN3-1" value="temp = *a" style="rounded=0;whiteSpace=wrap;html=1;fontSize=14;" vertex="1" parent="1">
          <mxGeometry x="370" y="110" width="120" height="50" as="geometry" />
        </mxCell>
        <mxCell id="7hP5fBD492NFpeidsuN3-2" value="a = *b" style="rounded=0;whiteSpace=wrap;html=1;fontSize=14;" vertex="1" parent="1">
          <mxGeometry x="370" y="190" width="120" height="50" as="geometry" />
        </mxCell>
        <mxCell id="7hP5fBD492NFpeidsuN3-3" value="b = temp" style="rounded=0;whiteSpace=wrap;html=1;fontSize=14;" vertex="1" parent="1">
          <mxGeometry x="370" y="270" width="120" height="50" as="geometry" />
        </mxCell>
        <mxCell id="7hP5fBD492NFpeidsuN3-4" value="" style="endArrow=none;html=1;rounded=0;entryX=0.5;entryY=1;entryDx=0;entryDy=0;fontSize=14;" edge="1" parent="1" target="NQ8pqta2iU1uFQzpnlFg-1">
          <mxGeometry width="50" height="50" relative="1" as="geometry">
            <mxPoint x="430" y="110" as="sourcePoint" />
            <mxPoint x="450" y="260" as="targetPoint" />
          </mxGeometry>
        </mxCell>
        <mxCell id="7hP5fBD492NFpeidsuN3-5" value="" style="endArrow=none;html=1;rounded=0;entryX=0.5;entryY=1;entryDx=0;entryDy=0;exitX=0.5;exitY=0;exitDx=0;exitDy=0;fontSize=14;" edge="1" parent="1" source="7hP5fBD492NFpeidsuN3-2" target="7hP5fBD492NFpeidsuN3-1">
          <mxGeometry width="50" height="50" relative="1" as="geometry">
            <mxPoint x="400" y="310" as="sourcePoint" />
            <mxPoint x="450" y="260" as="targetPoint" />
          </mxGeometry>
        </mxCell>
        <mxCell id="7hP5fBD492NFpeidsuN3-6" value="" style="endArrow=none;html=1;rounded=0;entryX=0.5;entryY=1;entryDx=0;entryDy=0;exitX=0.5;exitY=0;exitDx=0;exitDy=0;fontSize=14;" edge="1" parent="1" source="7hP5fBD492NFpeidsuN3-3" target="7hP5fBD492NFpeidsuN3-2">
          <mxGeometry width="50" height="50" relative="1" as="geometry">
            <mxPoint x="400" y="310" as="sourcePoint" />
            <mxPoint x="450" y="260" as="targetPoint" />
          </mxGeometry>
        </mxCell>
        <mxCell id="7hP5fBD492NFpeidsuN3-7" value="Кінець" style="rounded=1;whiteSpace=wrap;html=1;arcSize=50;fontSize=14;" vertex="1" parent="1">
          <mxGeometry x="370" y="350" width="120" height="60" as="geometry" />
        </mxCell>
        <mxCell id="7hP5fBD492NFpeidsuN3-8" value="" style="endArrow=none;html=1;rounded=0;exitX=0.5;exitY=0;exitDx=0;exitDy=0;entryX=0.5;entryY=1;entryDx=0;entryDy=0;fontSize=14;" edge="1" parent="1" source="7hP5fBD492NFpeidsuN3-7" target="7hP5fBD492NFpeidsuN3-3">
          <mxGeometry width="50" height="50" relative="1" as="geometry">
            <mxPoint x="400" y="310" as="sourcePoint" />
            <mxPoint x="450" y="260" as="targetPoint" />
          </mxGeometry>
        </mxCell>
      </root>
    </mxGraphModel>
  </diagram>
  <diagram id="vA1kv4u4YAMU4zXBQS-y" name="choiceSort">
    <mxGraphModel dx="1434" dy="759" grid="1" gridSize="10" guides="1" tooltips="1" connect="1" arrows="1" fold="1" page="1" pageScale="1" pageWidth="850" pageHeight="1100" math="0" shadow="0">
      <root>
        <mxCell id="0" />
        <mxCell id="1" parent="0" />
        <mxCell id="x5gLBP5NvF2fbGOAa6Fw-21" value="Початок" style="rounded=1;whiteSpace=wrap;html=1;arcSize=50;fontSize=14;" vertex="1" parent="1">
          <mxGeometry x="370" y="100" width="120" height="60" as="geometry" />
        </mxCell>
        <mxCell id="x5gLBP5NvF2fbGOAa6Fw-22" value="" style="orthogonalLoop=1;jettySize=auto;html=1;rounded=0;elbow=vertical;strokeWidth=1;endArrow=classicThin;endFill=1;endSize=0;exitX=0.5;exitY=1;exitDx=0;exitDy=0;fontSize=14;" edge="1" parent="1" source="x5gLBP5NvF2fbGOAa6Fw-21" target="x5gLBP5NvF2fbGOAa6Fw-24">
          <mxGeometry width="100" relative="1" as="geometry">
            <mxPoint x="435" y="190" as="sourcePoint" />
            <mxPoint x="435" y="230" as="targetPoint" />
          </mxGeometry>
        </mxCell>
        <mxCell id="x5gLBP5NvF2fbGOAa6Fw-23" style="edgeStyle=none;rounded=0;orthogonalLoop=1;jettySize=auto;html=1;exitX=1;exitY=0.5;exitDx=0;exitDy=0;elbow=vertical;entryX=0.5;entryY=0;entryDx=0;entryDy=0;fontSize=14;" edge="1" parent="1" source="x5gLBP5NvF2fbGOAa6Fw-24" target="x5gLBP5NvF2fbGOAa6Fw-38">
          <mxGeometry relative="1" as="geometry">
            <mxPoint x="430" y="850" as="targetPoint" />
            <Array as="points">
              <mxPoint x="650" y="210" />
              <mxPoint x="650" y="810" />
              <mxPoint x="430" y="810" />
            </Array>
          </mxGeometry>
        </mxCell>
        <mxCell id="x5gLBP5NvF2fbGOAa6Fw-24" value="i = 0; i &amp;lt; size-1; i++" style="shape=hexagon;perimeter=hexagonPerimeter2;whiteSpace=wrap;html=1;fixedSize=1;size=25;fontSize=14;" vertex="1" parent="1">
          <mxGeometry x="337.5" y="190" width="185" height="40" as="geometry" />
        </mxCell>
        <mxCell id="x5gLBP5NvF2fbGOAa6Fw-25" value="" style="orthogonalLoop=1;jettySize=auto;html=1;rounded=0;elbow=vertical;strokeWidth=1;endArrow=classicThin;endFill=1;endSize=0;exitX=0.5;exitY=1;exitDx=0;exitDy=0;fontSize=14;entryX=0.5;entryY=0;entryDx=0;entryDy=0;" edge="1" parent="1" source="x5gLBP5NvF2fbGOAa6Fw-24" target="x5gLBP5NvF2fbGOAa6Fw-26">
          <mxGeometry width="100" relative="1" as="geometry">
            <mxPoint x="460" y="330" as="sourcePoint" />
            <mxPoint x="460" y="370" as="targetPoint" />
          </mxGeometry>
        </mxCell>
        <mxCell id="x5gLBP5NvF2fbGOAa6Fw-26" value="smallestIndex = i" style="rounded=0;whiteSpace=wrap;html=1;fontSize=14;" vertex="1" parent="1">
          <mxGeometry x="345" y="260" width="170" height="40" as="geometry" />
        </mxCell>
        <mxCell id="x5gLBP5NvF2fbGOAa6Fw-27" style="edgeStyle=none;rounded=0;orthogonalLoop=1;jettySize=auto;html=1;elbow=vertical;exitX=1;exitY=0.5;exitDx=0;exitDy=0;entryX=0.5;entryY=0;entryDx=0;entryDy=0;fontSize=14;" edge="1" parent="1" source="x5gLBP5NvF2fbGOAa6Fw-28" target="x5gLBP5NvF2fbGOAa6Fw-37">
          <mxGeometry relative="1" as="geometry">
            <Array as="points">
              <mxPoint x="610" y="350" />
              <mxPoint x="610" y="710" />
              <mxPoint x="430" y="710" />
            </Array>
          </mxGeometry>
        </mxCell>
        <mxCell id="x5gLBP5NvF2fbGOAa6Fw-28" value="j = i+1; j &amp;lt; size; j++" style="shape=hexagon;perimeter=hexagonPerimeter2;whiteSpace=wrap;html=1;fixedSize=1;size=25;fontSize=14;" vertex="1" parent="1">
          <mxGeometry x="337.5" y="330" width="185" height="40" as="geometry" />
        </mxCell>
        <mxCell id="x5gLBP5NvF2fbGOAa6Fw-29" value="" style="orthogonalLoop=1;jettySize=auto;html=1;rounded=0;elbow=vertical;strokeWidth=1;endArrow=classicThin;endFill=1;endSize=0;exitX=0.5;exitY=1;exitDx=0;exitDy=0;fontSize=14;entryX=0.5;entryY=0;entryDx=0;entryDy=0;" edge="1" parent="1" target="x5gLBP5NvF2fbGOAa6Fw-28">
          <mxGeometry width="100" relative="1" as="geometry">
            <mxPoint x="429.68" y="300" as="sourcePoint" />
            <mxPoint x="430" y="330" as="targetPoint" />
          </mxGeometry>
        </mxCell>
        <mxCell id="x5gLBP5NvF2fbGOAa6Fw-30" style="edgeStyle=none;rounded=0;orthogonalLoop=1;jettySize=auto;html=1;elbow=vertical;exitX=1;exitY=0.5;exitDx=0;exitDy=0;fontSize=14;" edge="1" parent="1" source="x5gLBP5NvF2fbGOAa6Fw-31">
          <mxGeometry relative="1" as="geometry">
            <mxPoint x="430" y="670" as="targetPoint" />
            <mxPoint x="565" y="520.0000000000001" as="sourcePoint" />
            <Array as="points">
              <mxPoint x="590" y="505" />
              <mxPoint x="590" y="670" />
            </Array>
          </mxGeometry>
        </mxCell>
        <mxCell id="x5gLBP5NvF2fbGOAa6Fw-31" value="array[j] &amp;lt; array[smallestIndex]" style="rhombus;whiteSpace=wrap;html=1;fontSize=14;" vertex="1" parent="1">
          <mxGeometry x="295" y="410" width="270" height="190" as="geometry" />
        </mxCell>
        <mxCell id="x5gLBP5NvF2fbGOAa6Fw-32" value="" style="orthogonalLoop=1;jettySize=auto;html=1;rounded=0;elbow=vertical;strokeWidth=1;endArrow=classicThin;endFill=1;endSize=0;exitX=0.5;exitY=1;exitDx=0;exitDy=0;fontSize=14;" edge="1" parent="1" source="x5gLBP5NvF2fbGOAa6Fw-28" target="x5gLBP5NvF2fbGOAa6Fw-31">
          <mxGeometry width="100" relative="1" as="geometry">
            <mxPoint x="429.68" y="380" as="sourcePoint" />
            <mxPoint x="430" y="410" as="targetPoint" />
          </mxGeometry>
        </mxCell>
        <mxCell id="x5gLBP5NvF2fbGOAa6Fw-33" value="" style="orthogonalLoop=1;jettySize=auto;html=1;rounded=0;elbow=vertical;strokeWidth=1;endArrow=classicThin;endFill=1;endSize=0;exitX=0.5;exitY=1;exitDx=0;exitDy=0;fontSize=14;" edge="1" parent="1" source="x5gLBP5NvF2fbGOAa6Fw-31" target="x5gLBP5NvF2fbGOAa6Fw-35">
          <mxGeometry width="100" relative="1" as="geometry">
            <mxPoint x="490" y="620" as="sourcePoint" />
            <mxPoint x="430" y="640" as="targetPoint" />
          </mxGeometry>
        </mxCell>
        <mxCell id="x5gLBP5NvF2fbGOAa6Fw-34" style="edgeStyle=none;rounded=0;orthogonalLoop=1;jettySize=auto;html=1;elbow=vertical;entryX=0;entryY=0.5;entryDx=0;entryDy=0;fontSize=14;" edge="1" parent="1" source="x5gLBP5NvF2fbGOAa6Fw-35" target="x5gLBP5NvF2fbGOAa6Fw-28">
          <mxGeometry relative="1" as="geometry">
            <mxPoint x="260" y="690" as="targetPoint" />
            <Array as="points">
              <mxPoint x="430" y="690" />
              <mxPoint x="250" y="690" />
              <mxPoint x="250" y="350" />
            </Array>
          </mxGeometry>
        </mxCell>
        <mxCell id="x5gLBP5NvF2fbGOAa6Fw-35" value="smallestIndex = j" style="rounded=0;whiteSpace=wrap;html=1;fontSize=14;" vertex="1" parent="1">
          <mxGeometry x="350" y="630" width="160" height="30" as="geometry" />
        </mxCell>
        <mxCell id="x5gLBP5NvF2fbGOAa6Fw-36" style="edgeStyle=none;rounded=0;orthogonalLoop=1;jettySize=auto;html=1;elbow=vertical;exitX=0.5;exitY=1;exitDx=0;exitDy=0;entryX=0;entryY=0.5;entryDx=0;entryDy=0;fontSize=14;" edge="1" parent="1" source="x5gLBP5NvF2fbGOAa6Fw-37" target="x5gLBP5NvF2fbGOAa6Fw-24">
          <mxGeometry relative="1" as="geometry">
            <mxPoint x="370" y="880" as="targetPoint" />
            <Array as="points">
              <mxPoint x="430" y="800" />
              <mxPoint x="210" y="800" />
              <mxPoint x="210" y="210" />
            </Array>
          </mxGeometry>
        </mxCell>
        <mxCell id="x5gLBP5NvF2fbGOAa6Fw-37" value="swap(array[i], array[smallestIndex])" style="rounded=0;whiteSpace=wrap;html=1;fontSize=14;" vertex="1" parent="1">
          <mxGeometry x="295" y="730" width="270" height="60" as="geometry" />
        </mxCell>
        <mxCell id="x5gLBP5NvF2fbGOAa6Fw-38" value="Кінець" style="rounded=1;whiteSpace=wrap;html=1;arcSize=50;fontSize=14;" vertex="1" parent="1">
          <mxGeometry x="370" y="850" width="120" height="60" as="geometry" />
        </mxCell>
        <mxCell id="x5gLBP5NvF2fbGOAa6Fw-39" value="no" style="text;html=1;align=center;verticalAlign=middle;resizable=0;points=[];autosize=1;strokeColor=none;fillColor=none;fontSize=14;" vertex="1" parent="1">
          <mxGeometry x="560" y="470" width="40" height="30" as="geometry" />
        </mxCell>
        <mxCell id="x5gLBP5NvF2fbGOAa6Fw-40" value="yes" style="text;html=1;align=center;verticalAlign=middle;resizable=0;points=[];autosize=1;strokeColor=none;fillColor=none;fontSize=14;" vertex="1" parent="1">
          <mxGeometry x="430" y="600" width="40" height="30" as="geometry" />
        </mxCell>
      </root>
    </mxGraphModel>
  </diagram>
  <diagram id="0YlR-DYksjsWFGrtlT6T" name="rand">
    <mxGraphModel dx="2284" dy="759" grid="1" gridSize="10" guides="1" tooltips="1" connect="1" arrows="1" fold="1" page="1" pageScale="1" pageWidth="850" pageHeight="1100" math="0" shadow="0">
      <root>
        <mxCell id="0" />
        <mxCell id="1" parent="0" />
        <mxCell id="40DtIcoIFZi7jL3pjElA-1" value="Початок" style="rounded=1;whiteSpace=wrap;html=1;arcSize=50;" vertex="1" parent="1">
          <mxGeometry x="50" y="30" width="120" height="60" as="geometry" />
        </mxCell>
        <mxCell id="C7SplwWWZEWEv9NqonCZ-2" style="edgeStyle=orthogonalEdgeStyle;rounded=0;orthogonalLoop=1;jettySize=auto;html=1;" edge="1" parent="1" source="40DtIcoIFZi7jL3pjElA-2" target="C7SplwWWZEWEv9NqonCZ-1">
          <mxGeometry relative="1" as="geometry" />
        </mxCell>
        <mxCell id="40DtIcoIFZi7jL3pjElA-2" value="srand(static_cast&amp;lt;int&amp;gt;(time(nullptr)))" style="rounded=0;whiteSpace=wrap;html=1;" vertex="1" parent="1">
          <mxGeometry x="-30" y="120" width="280" height="40" as="geometry" />
        </mxCell>
        <mxCell id="40DtIcoIFZi7jL3pjElA-3" value="" style="endArrow=none;html=1;rounded=0;entryX=0.5;entryY=1;entryDx=0;entryDy=0;exitX=0.5;exitY=0;exitDx=0;exitDy=0;" edge="1" parent="1" source="40DtIcoIFZi7jL3pjElA-2" target="40DtIcoIFZi7jL3pjElA-1">
          <mxGeometry width="50" height="50" relative="1" as="geometry">
            <mxPoint x="400" y="420" as="sourcePoint" />
            <mxPoint x="450" y="370" as="targetPoint" />
          </mxGeometry>
        </mxCell>
        <mxCell id="C7SplwWWZEWEv9NqonCZ-1" value="кінець" style="rounded=1;whiteSpace=wrap;html=1;arcSize=50;fontSize=14;" vertex="1" parent="1">
          <mxGeometry x="50" y="190" width="120" height="60" as="geometry" />
        </mxCell>
        <mxCell id="C7SplwWWZEWEv9NqonCZ-3" value="Початок" style="rounded=1;whiteSpace=wrap;html=1;arcSize=50;" vertex="1" parent="1">
          <mxGeometry x="400" y="30" width="120" height="60" as="geometry" />
        </mxCell>
        <mxCell id="C7SplwWWZEWEv9NqonCZ-4" style="edgeStyle=orthogonalEdgeStyle;rounded=0;orthogonalLoop=1;jettySize=auto;html=1;" edge="1" parent="1" source="C7SplwWWZEWEv9NqonCZ-5" target="C7SplwWWZEWEv9NqonCZ-7">
          <mxGeometry relative="1" as="geometry" />
        </mxCell>
        <mxCell id="C7SplwWWZEWEv9NqonCZ-5" value="randNum = (rand() % 100) - (rand() % 10 * 5)" style="rounded=0;whiteSpace=wrap;html=1;" vertex="1" parent="1">
          <mxGeometry x="320" y="120" width="280" height="40" as="geometry" />
        </mxCell>
        <mxCell id="C7SplwWWZEWEv9NqonCZ-6" value="" style="endArrow=none;html=1;rounded=0;entryX=0.5;entryY=1;entryDx=0;entryDy=0;exitX=0.5;exitY=0;exitDx=0;exitDy=0;" edge="1" parent="1" source="C7SplwWWZEWEv9NqonCZ-5" target="C7SplwWWZEWEv9NqonCZ-3">
          <mxGeometry width="50" height="50" relative="1" as="geometry">
            <mxPoint x="750" y="420" as="sourcePoint" />
            <mxPoint x="800" y="370" as="targetPoint" />
          </mxGeometry>
        </mxCell>
        <mxCell id="C7SplwWWZEWEv9NqonCZ-7" value="кінець" style="rounded=1;whiteSpace=wrap;html=1;arcSize=50;fontSize=14;" vertex="1" parent="1">
          <mxGeometry x="400" y="190" width="120" height="60" as="geometry" />
        </mxCell>
      </root>
    </mxGraphModel>
  </diagram>
  <diagram id="Pf3a4NSRusZnYKIw7HHf" name="Table">
    <mxGraphModel dx="1434" dy="759" grid="1" gridSize="10" guides="1" tooltips="1" connect="1" arrows="1" fold="1" page="1" pageScale="1" pageWidth="850" pageHeight="1100" math="0" shadow="0">
      <root>
        <mxCell id="0" />
        <mxCell id="1" parent="0" />
        <mxCell id="a-J2dgXYJ6N-BpH-mhY3-1" value="Початок " style="rounded=1;whiteSpace=wrap;html=1;arcSize=50;fontSize=14;" vertex="1" parent="1">
          <mxGeometry x="380" y="10" width="120" height="60" as="geometry" />
        </mxCell>
        <mxCell id="a-J2dgXYJ6N-BpH-mhY3-2" value="" style="endArrow=none;html=1;rounded=0;entryX=0.5;entryY=1;entryDx=0;entryDy=0;exitX=0.5;exitY=0;exitDx=0;exitDy=0;fontSize=14;" edge="1" parent="1" source="Nj9vBhpP3wD_xE6M9z4o-1" target="a-J2dgXYJ6N-BpH-mhY3-1">
          <mxGeometry width="50" height="50" relative="1" as="geometry">
            <mxPoint x="400" y="340" as="sourcePoint" />
            <mxPoint x="450" y="290" as="targetPoint" />
          </mxGeometry>
        </mxCell>
        <mxCell id="Nj9vBhpP3wD_xE6M9z4o-2" style="edgeStyle=orthogonalEdgeStyle;rounded=0;orthogonalLoop=1;jettySize=auto;html=1;entryX=0;entryY=0.5;entryDx=0;entryDy=0;fontSize=14;" edge="1" parent="1" source="Nj9vBhpP3wD_xE6M9z4o-1" target="Nj9vBhpP3wD_xE6M9z4o-1">
          <mxGeometry relative="1" as="geometry">
            <mxPoint x="290" y="160" as="targetPoint" />
            <Array as="points">
              <mxPoint x="440" y="160" />
              <mxPoint x="330" y="160" />
              <mxPoint x="330" y="125" />
            </Array>
          </mxGeometry>
        </mxCell>
        <mxCell id="Nj9vBhpP3wD_xE6M9z4o-1" value="i = 0; i &amp;lt;n ; i++" style="shape=hexagon;perimeter=hexagonPerimeter2;whiteSpace=wrap;html=1;fixedSize=1;fontSize=14;" vertex="1" parent="1">
          <mxGeometry x="355" y="110" width="170" height="30" as="geometry" />
        </mxCell>
        <mxCell id="Nj9vBhpP3wD_xE6M9z4o-3" value="" style="endArrow=none;html=1;rounded=0;entryX=1;entryY=0.5;entryDx=0;entryDy=0;exitX=0.5;exitY=0;exitDx=0;exitDy=0;fontSize=14;" edge="1" parent="1" source="Nj9vBhpP3wD_xE6M9z4o-4" target="Nj9vBhpP3wD_xE6M9z4o-1">
          <mxGeometry width="50" height="50" relative="1" as="geometry">
            <mxPoint x="440" y="240" as="sourcePoint" />
            <mxPoint x="450" y="290" as="targetPoint" />
            <Array as="points">
              <mxPoint x="440" y="200" />
              <mxPoint x="560" y="200" />
              <mxPoint x="560" y="125" />
            </Array>
          </mxGeometry>
        </mxCell>
        <mxCell id="Nj9vBhpP3wD_xE6M9z4o-4" value="choiceSort(n, sortedArr1)" style="rounded=0;whiteSpace=wrap;html=1;fontSize=14;" vertex="1" parent="1">
          <mxGeometry x="322.5" y="230" width="235" height="60" as="geometry" />
        </mxCell>
        <mxCell id="Nj9vBhpP3wD_xE6M9z4o-9" style="edgeStyle=orthogonalEdgeStyle;rounded=0;orthogonalLoop=1;jettySize=auto;html=1;fontSize=14;" edge="1" parent="1" source="Nj9vBhpP3wD_xE6M9z4o-6">
          <mxGeometry relative="1" as="geometry">
            <mxPoint x="440" y="600" as="targetPoint" />
            <Array as="points">
              <mxPoint x="601" y="335" />
              <mxPoint x="601" y="560" />
            </Array>
          </mxGeometry>
        </mxCell>
        <mxCell id="Nj9vBhpP3wD_xE6M9z4o-11" style="edgeStyle=orthogonalEdgeStyle;rounded=0;orthogonalLoop=1;jettySize=auto;html=1;fontSize=14;" edge="1" parent="1" source="Nj9vBhpP3wD_xE6M9z4o-6">
          <mxGeometry relative="1" as="geometry">
            <mxPoint x="440" y="380" as="targetPoint" />
          </mxGeometry>
        </mxCell>
        <mxCell id="Nj9vBhpP3wD_xE6M9z4o-6" value="i = 0; i &amp;lt; n ; i++" style="shape=hexagon;perimeter=hexagonPerimeter2;whiteSpace=wrap;html=1;fixedSize=1;fontSize=14;" vertex="1" parent="1">
          <mxGeometry x="355" y="320" width="170" height="30" as="geometry" />
        </mxCell>
        <mxCell id="Nj9vBhpP3wD_xE6M9z4o-7" value="" style="endArrow=none;html=1;rounded=0;entryX=0.5;entryY=1;entryDx=0;entryDy=0;exitX=0.5;exitY=0;exitDx=0;exitDy=0;fontSize=14;" edge="1" parent="1" source="Nj9vBhpP3wD_xE6M9z4o-6" target="Nj9vBhpP3wD_xE6M9z4o-4">
          <mxGeometry width="50" height="50" relative="1" as="geometry">
            <mxPoint x="400" y="340" as="sourcePoint" />
            <mxPoint x="450" y="290" as="targetPoint" />
          </mxGeometry>
        </mxCell>
        <mxCell id="Nj9vBhpP3wD_xE6M9z4o-8" style="edgeStyle=orthogonalEdgeStyle;rounded=0;orthogonalLoop=1;jettySize=auto;html=1;exitX=0.5;exitY=1;exitDx=0;exitDy=0;fontSize=14;" edge="1" parent="1" source="Nj9vBhpP3wD_xE6M9z4o-6" target="Nj9vBhpP3wD_xE6M9z4o-6">
          <mxGeometry relative="1" as="geometry" />
        </mxCell>
        <mxCell id="Nj9vBhpP3wD_xE6M9z4o-10" value="Кінець" style="rounded=1;whiteSpace=wrap;html=1;arcSize=50;fontSize=14;" vertex="1" parent="1">
          <mxGeometry x="380" y="600" width="120" height="60" as="geometry" />
        </mxCell>
        <mxCell id="Nj9vBhpP3wD_xE6M9z4o-12" value="sortedArr1[k-1] == arr1[i]" style="rhombus;whiteSpace=wrap;html=1;fontSize=14;" vertex="1" parent="1">
          <mxGeometry x="325" y="380" width="230" height="100" as="geometry" />
        </mxCell>
        <mxCell id="Nj9vBhpP3wD_xE6M9z4o-13" value="" style="endArrow=none;html=1;rounded=0;exitX=1;exitY=0.5;exitDx=0;exitDy=0;entryX=0;entryY=0.5;entryDx=0;entryDy=0;fontSize=14;" edge="1" parent="1" source="Nj9vBhpP3wD_xE6M9z4o-12" target="Nj9vBhpP3wD_xE6M9z4o-12">
          <mxGeometry width="50" height="50" relative="1" as="geometry">
            <mxPoint x="400" y="340" as="sourcePoint" />
            <mxPoint x="370" y="520" as="targetPoint" />
            <Array as="points">
              <mxPoint x="580" y="430" />
              <mxPoint x="580" y="520" />
              <mxPoint x="300" y="520" />
              <mxPoint x="300" y="430" />
            </Array>
          </mxGeometry>
        </mxCell>
        <mxCell id="Nj9vBhpP3wD_xE6M9z4o-14" value="" style="endArrow=classic;html=1;rounded=0;entryX=0;entryY=0.5;entryDx=0;entryDy=0;fontSize=14;" edge="1" parent="1" target="Nj9vBhpP3wD_xE6M9z4o-6">
          <mxGeometry width="50" height="50" relative="1" as="geometry">
            <mxPoint x="440" y="520" as="sourcePoint" />
            <mxPoint x="450" y="290" as="targetPoint" />
            <Array as="points">
              <mxPoint x="440" y="550" />
              <mxPoint x="260" y="550" />
              <mxPoint x="260" y="335" />
            </Array>
          </mxGeometry>
        </mxCell>
        <mxCell id="Nj9vBhpP3wD_xE6M9z4o-15" value="yes" style="text;html=1;align=center;verticalAlign=middle;resizable=0;points=[];autosize=1;strokeColor=none;fillColor=none;fontSize=14;" vertex="1" parent="1">
          <mxGeometry x="300" y="398" width="40" height="30" as="geometry" />
        </mxCell>
        <mxCell id="Nj9vBhpP3wD_xE6M9z4o-16" value="no" style="text;html=1;align=center;verticalAlign=middle;resizable=0;points=[];autosize=1;strokeColor=none;fillColor=none;fontSize=14;" vertex="1" parent="1">
          <mxGeometry x="540" y="398" width="40" height="30" as="geometry" />
        </mxCell>
      </root>
    </mxGraphModel>
  </diagram>
  <diagram id="AZy8jrqmtRQk2DC7PsoB" name="GuessedNumber">
    <mxGraphModel dx="2049" dy="1084" grid="1" gridSize="10" guides="1" tooltips="1" connect="1" arrows="1" fold="1" page="1" pageScale="1" pageWidth="850" pageHeight="1100" math="0" shadow="0">
      <root>
        <mxCell id="0" />
        <mxCell id="1" parent="0" />
        <mxCell id="AwhVTXktIacfZn_gngic-7" style="edgeStyle=orthogonalEdgeStyle;rounded=0;orthogonalLoop=1;jettySize=auto;html=1;entryX=0.5;entryY=0;entryDx=0;entryDy=0;fontSize=14;" edge="1" parent="1" source="AwhVTXktIacfZn_gngic-1" target="AwhVTXktIacfZn_gngic-2">
          <mxGeometry relative="1" as="geometry" />
        </mxCell>
        <mxCell id="AwhVTXktIacfZn_gngic-1" value="Початок" style="rounded=1;whiteSpace=wrap;html=1;arcSize=50;fontSize=14;" vertex="1" parent="1">
          <mxGeometry x="365" y="30" width="120" height="60" as="geometry" />
        </mxCell>
        <mxCell id="AwhVTXktIacfZn_gngic-8" style="edgeStyle=orthogonalEdgeStyle;rounded=0;orthogonalLoop=1;jettySize=auto;html=1;entryX=0.5;entryY=0;entryDx=0;entryDy=0;fontSize=14;" edge="1" parent="1" source="AwhVTXktIacfZn_gngic-2" target="AwhVTXktIacfZn_gngic-3">
          <mxGeometry relative="1" as="geometry" />
        </mxCell>
        <mxCell id="AwhVTXktIacfZn_gngic-2" value="int low = a, high = b, mid, answer" style="rounded=0;whiteSpace=wrap;html=1;fontSize=14;" vertex="1" parent="1">
          <mxGeometry x="300" y="130" width="250" height="60" as="geometry" />
        </mxCell>
        <mxCell id="AwhVTXktIacfZn_gngic-9" style="edgeStyle=orthogonalEdgeStyle;rounded=0;orthogonalLoop=1;jettySize=auto;html=1;entryX=0.5;entryY=0;entryDx=0;entryDy=0;fontSize=14;" edge="1" parent="1" source="AwhVTXktIacfZn_gngic-3" target="AwhVTXktIacfZn_gngic-4">
          <mxGeometry relative="1" as="geometry" />
        </mxCell>
        <mxCell id="AwhVTXktIacfZn_gngic-31" style="edgeStyle=orthogonalEdgeStyle;rounded=0;orthogonalLoop=1;jettySize=auto;html=1;exitX=1;exitY=0.5;exitDx=0;exitDy=0;fontSize=14;" edge="1" parent="1" source="AwhVTXktIacfZn_gngic-3">
          <mxGeometry relative="1" as="geometry">
            <mxPoint x="470" y="1140" as="targetPoint" />
            <mxPoint x="504.92105263157896" y="270.0026315789475" as="sourcePoint" />
            <Array as="points">
              <mxPoint x="950" y="240" />
              <mxPoint x="950" y="1080" />
              <mxPoint x="470" y="1080" />
            </Array>
          </mxGeometry>
        </mxCell>
        <mxCell id="AwhVTXktIacfZn_gngic-3" value="i = 0; i &amp;lt; 50; i++" style="shape=hexagon;perimeter=hexagonPerimeter2;whiteSpace=wrap;html=1;fixedSize=1;size=30;fontSize=14;" vertex="1" parent="1">
          <mxGeometry x="335" y="220" width="180" height="40" as="geometry" />
        </mxCell>
        <mxCell id="AwhVTXktIacfZn_gngic-10" style="edgeStyle=orthogonalEdgeStyle;rounded=0;orthogonalLoop=1;jettySize=auto;html=1;entryX=0.5;entryY=0;entryDx=0;entryDy=0;fontSize=14;" edge="1" parent="1" source="AwhVTXktIacfZn_gngic-4" target="AwhVTXktIacfZn_gngic-6">
          <mxGeometry relative="1" as="geometry" />
        </mxCell>
        <mxCell id="AwhVTXktIacfZn_gngic-4" value="mid = (low + high) / 2" style="rounded=0;whiteSpace=wrap;html=1;fontSize=14;" vertex="1" parent="1">
          <mxGeometry x="335" y="290" width="180" height="60" as="geometry" />
        </mxCell>
        <mxCell id="AwhVTXktIacfZn_gngic-11" style="edgeStyle=orthogonalEdgeStyle;rounded=0;orthogonalLoop=1;jettySize=auto;html=1;fontSize=14;" edge="1" parent="1" source="AwhVTXktIacfZn_gngic-6">
          <mxGeometry relative="1" as="geometry">
            <mxPoint x="640" y="510" as="targetPoint" />
          </mxGeometry>
        </mxCell>
        <mxCell id="AwhVTXktIacfZn_gngic-12" style="edgeStyle=orthogonalEdgeStyle;rounded=0;orthogonalLoop=1;jettySize=auto;html=1;fontSize=14;" edge="1" parent="1" source="AwhVTXktIacfZn_gngic-6">
          <mxGeometry relative="1" as="geometry">
            <mxPoint x="260" y="510" as="targetPoint" />
          </mxGeometry>
        </mxCell>
        <mxCell id="AwhVTXktIacfZn_gngic-6" value="result == &quot;=&quot;" style="rhombus;whiteSpace=wrap;html=1;fontSize=14;" vertex="1" parent="1">
          <mxGeometry x="330" y="370" width="190" height="130" as="geometry" />
        </mxCell>
        <mxCell id="AwhVTXktIacfZn_gngic-13" value="&lt;div style=&quot;font-size: 14px;&quot;&gt;yes&lt;/div&gt;" style="text;html=1;align=center;verticalAlign=middle;resizable=0;points=[];autosize=1;strokeColor=none;fillColor=none;fontSize=14;" vertex="1" parent="1">
          <mxGeometry x="295" y="408" width="40" height="30" as="geometry" />
        </mxCell>
        <mxCell id="AwhVTXktIacfZn_gngic-14" value="no" style="text;html=1;align=center;verticalAlign=middle;resizable=0;points=[];autosize=1;strokeColor=none;fillColor=none;fontSize=14;" vertex="1" parent="1">
          <mxGeometry x="510" y="408" width="40" height="30" as="geometry" />
        </mxCell>
        <mxCell id="AwhVTXktIacfZn_gngic-15" value="return 0;" style="rounded=0;whiteSpace=wrap;html=1;fontSize=14;" vertex="1" parent="1">
          <mxGeometry x="200" y="510" width="120" height="40" as="geometry" />
        </mxCell>
        <mxCell id="AwhVTXktIacfZn_gngic-17" style="edgeStyle=orthogonalEdgeStyle;rounded=0;orthogonalLoop=1;jettySize=auto;html=1;fontSize=14;" edge="1" parent="1" source="AwhVTXktIacfZn_gngic-16">
          <mxGeometry relative="1" as="geometry">
            <mxPoint x="810" y="650" as="targetPoint" />
          </mxGeometry>
        </mxCell>
        <mxCell id="AwhVTXktIacfZn_gngic-23" style="edgeStyle=orthogonalEdgeStyle;rounded=0;orthogonalLoop=1;jettySize=auto;html=1;fontSize=14;" edge="1" parent="1" source="AwhVTXktIacfZn_gngic-16">
          <mxGeometry relative="1" as="geometry">
            <mxPoint x="490" y="680" as="targetPoint" />
          </mxGeometry>
        </mxCell>
        <mxCell id="AwhVTXktIacfZn_gngic-16" value="result == &quot;+&quot;" style="rhombus;whiteSpace=wrap;html=1;fontSize=14;" vertex="1" parent="1">
          <mxGeometry x="540" y="510" width="200" height="130" as="geometry" />
        </mxCell>
        <mxCell id="AwhVTXktIacfZn_gngic-19" style="edgeStyle=orthogonalEdgeStyle;rounded=0;orthogonalLoop=1;jettySize=auto;html=1;fontSize=14;" edge="1" parent="1" source="AwhVTXktIacfZn_gngic-18">
          <mxGeometry relative="1" as="geometry">
            <mxPoint x="810" y="820" as="targetPoint" />
          </mxGeometry>
        </mxCell>
        <mxCell id="AwhVTXktIacfZn_gngic-26" style="edgeStyle=orthogonalEdgeStyle;rounded=0;orthogonalLoop=1;jettySize=auto;html=1;fontSize=14;" edge="1" parent="1" source="AwhVTXktIacfZn_gngic-18">
          <mxGeometry relative="1" as="geometry">
            <mxPoint x="810" y="970" as="targetPoint" />
            <Array as="points">
              <mxPoint x="941" y="715" />
            </Array>
          </mxGeometry>
        </mxCell>
        <mxCell id="AwhVTXktIacfZn_gngic-18" value="result == &quot;-&quot;" style="rhombus;whiteSpace=wrap;html=1;fontSize=14;" vertex="1" parent="1">
          <mxGeometry x="710" y="650" width="200" height="130" as="geometry" />
        </mxCell>
        <mxCell id="AwhVTXktIacfZn_gngic-21" style="edgeStyle=orthogonalEdgeStyle;rounded=0;orthogonalLoop=1;jettySize=auto;html=1;fontSize=14;" edge="1" parent="1" source="AwhVTXktIacfZn_gngic-20">
          <mxGeometry relative="1" as="geometry">
            <mxPoint x="810" y="890" as="targetPoint" />
          </mxGeometry>
        </mxCell>
        <mxCell id="AwhVTXktIacfZn_gngic-20" value="high = mid -1" style="rounded=0;whiteSpace=wrap;html=1;fontSize=14;" vertex="1" parent="1">
          <mxGeometry x="750" y="820" width="120" height="40" as="geometry" />
        </mxCell>
        <mxCell id="AwhVTXktIacfZn_gngic-22" value="answer = mid" style="rounded=0;whiteSpace=wrap;html=1;fontSize=14;" vertex="1" parent="1">
          <mxGeometry x="750" y="890" width="120" height="40" as="geometry" />
        </mxCell>
        <mxCell id="AwhVTXktIacfZn_gngic-24" value="low = mid +1" style="rounded=0;whiteSpace=wrap;html=1;fontSize=14;" vertex="1" parent="1">
          <mxGeometry x="430" y="680" width="120" height="40" as="geometry" />
        </mxCell>
        <mxCell id="AwhVTXktIacfZn_gngic-25" value="" style="endArrow=none;html=1;rounded=0;exitX=0.5;exitY=1;exitDx=0;exitDy=0;entryX=0.5;entryY=1;entryDx=0;entryDy=0;fontSize=14;" edge="1" parent="1" source="AwhVTXktIacfZn_gngic-24" target="AwhVTXktIacfZn_gngic-22">
          <mxGeometry width="50" height="50" relative="1" as="geometry">
            <mxPoint x="490" y="770" as="sourcePoint" />
            <mxPoint x="540" y="720" as="targetPoint" />
            <Array as="points">
              <mxPoint x="490" y="1000" />
              <mxPoint x="810" y="1000" />
            </Array>
          </mxGeometry>
        </mxCell>
        <mxCell id="AwhVTXktIacfZn_gngic-27" value="&lt;div style=&quot;font-size: 14px;&quot;&gt;yes&lt;/div&gt;" style="text;html=1;align=center;verticalAlign=middle;resizable=0;points=[];autosize=1;strokeColor=none;fillColor=none;fontSize=14;" vertex="1" parent="1">
          <mxGeometry x="500" y="548" width="40" height="30" as="geometry" />
        </mxCell>
        <mxCell id="AwhVTXktIacfZn_gngic-28" value="no" style="text;html=1;align=center;verticalAlign=middle;resizable=0;points=[];autosize=1;strokeColor=none;fillColor=none;fontSize=14;" vertex="1" parent="1">
          <mxGeometry x="730" y="548" width="40" height="30" as="geometry" />
        </mxCell>
        <mxCell id="AwhVTXktIacfZn_gngic-29" value="no" style="text;html=1;align=center;verticalAlign=middle;resizable=0;points=[];autosize=1;strokeColor=none;fillColor=none;fontSize=14;" vertex="1" parent="1">
          <mxGeometry x="900" y="685" width="40" height="30" as="geometry" />
        </mxCell>
        <mxCell id="AwhVTXktIacfZn_gngic-30" value="yes" style="text;html=1;align=center;verticalAlign=middle;resizable=0;points=[];autosize=1;strokeColor=none;fillColor=none;fontSize=14;" vertex="1" parent="1">
          <mxGeometry x="810" y="780" width="40" height="30" as="geometry" />
        </mxCell>
        <mxCell id="AwhVTXktIacfZn_gngic-32" value="" style="endArrow=none;html=1;rounded=0;entryX=0.5;entryY=1;entryDx=0;entryDy=0;fontSize=14;" edge="1" parent="1" target="AwhVTXktIacfZn_gngic-15">
          <mxGeometry width="50" height="50" relative="1" as="geometry">
            <mxPoint x="670" y="1000" as="sourcePoint" />
            <mxPoint x="420" y="730" as="targetPoint" />
            <Array as="points">
              <mxPoint x="670" y="1040" />
              <mxPoint x="260" y="1040" />
            </Array>
          </mxGeometry>
        </mxCell>
        <mxCell id="AwhVTXktIacfZn_gngic-33" value="" style="endArrow=none;html=1;rounded=0;entryX=0;entryY=0.5;entryDx=0;entryDy=0;fontSize=14;" edge="1" parent="1" target="AwhVTXktIacfZn_gngic-3">
          <mxGeometry width="50" height="50" relative="1" as="geometry">
            <mxPoint x="470" y="1040" as="sourcePoint" />
            <mxPoint x="330" y="247.89473684210526" as="targetPoint" />
            <Array as="points">
              <mxPoint x="470" y="1080" />
              <mxPoint x="160" y="1080" />
              <mxPoint x="160" y="240" />
            </Array>
          </mxGeometry>
        </mxCell>
        <mxCell id="AwhVTXktIacfZn_gngic-34" value="кінець" style="rounded=1;whiteSpace=wrap;html=1;arcSize=50;fontSize=14;" vertex="1" parent="1">
          <mxGeometry x="410" y="1140" width="120" height="60" as="geometry" />
        </mxCell>
      </root>
    </mxGraphModel>
  </diagram>
  <diagram id="pxUsx7tV-zFV3vSJB3V5" name="SearchingElementsInArray">
    <mxGraphModel dx="1434" dy="759" grid="1" gridSize="10" guides="1" tooltips="1" connect="1" arrows="1" fold="1" page="1" pageScale="1" pageWidth="850" pageHeight="1100" math="0" shadow="0">
      <root>
        <mxCell id="0" />
        <mxCell id="1" parent="0" />
        <mxCell id="WIpNyMzHm8HvfF3pxOTX-4" style="edgeStyle=orthogonalEdgeStyle;rounded=0;orthogonalLoop=1;jettySize=auto;html=1;entryX=0.5;entryY=0;entryDx=0;entryDy=0;" edge="1" parent="1" source="WIpNyMzHm8HvfF3pxOTX-1" target="WIpNyMzHm8HvfF3pxOTX-2">
          <mxGeometry relative="1" as="geometry" />
        </mxCell>
        <mxCell id="WIpNyMzHm8HvfF3pxOTX-1" value="Початок" style="rounded=1;whiteSpace=wrap;html=1;arcSize=50;" vertex="1" parent="1">
          <mxGeometry x="370" y="10" width="120" height="60" as="geometry" />
        </mxCell>
        <mxCell id="WIpNyMzHm8HvfF3pxOTX-3" style="edgeStyle=orthogonalEdgeStyle;rounded=0;orthogonalLoop=1;jettySize=auto;html=1;entryX=0;entryY=0.5;entryDx=0;entryDy=0;" edge="1" parent="1" source="WIpNyMzHm8HvfF3pxOTX-2" target="WIpNyMzHm8HvfF3pxOTX-2">
          <mxGeometry relative="1" as="geometry">
            <mxPoint x="280" y="440" as="targetPoint" />
            <Array as="points">
              <mxPoint x="430" y="180" />
              <mxPoint x="310" y="180" />
              <mxPoint x="310" y="135" />
            </Array>
          </mxGeometry>
        </mxCell>
        <mxCell id="WIpNyMzHm8HvfF3pxOTX-5" style="edgeStyle=orthogonalEdgeStyle;rounded=0;orthogonalLoop=1;jettySize=auto;html=1;entryX=0.5;entryY=0;entryDx=0;entryDy=0;" edge="1" parent="1" source="WIpNyMzHm8HvfF3pxOTX-2" target="WIpNyMzHm8HvfF3pxOTX-6">
          <mxGeometry relative="1" as="geometry">
            <mxPoint x="430" y="270" as="targetPoint" />
            <Array as="points">
              <mxPoint x="571" y="135" />
              <mxPoint x="571" y="240" />
              <mxPoint x="430" y="240" />
            </Array>
          </mxGeometry>
        </mxCell>
        <mxCell id="WIpNyMzHm8HvfF3pxOTX-2" value="i = 0; i &amp;lt; N; i++" style="shape=hexagon;perimeter=hexagonPerimeter2;whiteSpace=wrap;html=1;fixedSize=1;" vertex="1" parent="1">
          <mxGeometry x="350" y="110" width="160" height="50" as="geometry" />
        </mxCell>
        <mxCell id="WIpNyMzHm8HvfF3pxOTX-8" style="edgeStyle=orthogonalEdgeStyle;rounded=0;orthogonalLoop=1;jettySize=auto;html=1;entryX=0;entryY=0.5;entryDx=0;entryDy=0;" edge="1" parent="1" source="WIpNyMzHm8HvfF3pxOTX-6" target="WIpNyMzHm8HvfF3pxOTX-6">
          <mxGeometry relative="1" as="geometry">
            <mxPoint x="380" y="350" as="targetPoint" />
            <Array as="points">
              <mxPoint x="430" y="330" />
              <mxPoint x="320" y="330" />
              <mxPoint x="320" y="285" />
            </Array>
          </mxGeometry>
        </mxCell>
        <mxCell id="WIpNyMzHm8HvfF3pxOTX-9" style="edgeStyle=orthogonalEdgeStyle;rounded=0;orthogonalLoop=1;jettySize=auto;html=1;entryX=0.5;entryY=0;entryDx=0;entryDy=0;" edge="1" parent="1" source="WIpNyMzHm8HvfF3pxOTX-6" target="WIpNyMzHm8HvfF3pxOTX-10">
          <mxGeometry relative="1" as="geometry">
            <mxPoint x="440" y="450" as="targetPoint" />
            <Array as="points">
              <mxPoint x="571" y="285" />
              <mxPoint x="571" y="430" />
              <mxPoint x="435" y="430" />
            </Array>
          </mxGeometry>
        </mxCell>
        <mxCell id="WIpNyMzHm8HvfF3pxOTX-6" value="i = 0; i &amp;lt; M; i++" style="shape=hexagon;perimeter=hexagonPerimeter2;whiteSpace=wrap;html=1;fixedSize=1;" vertex="1" parent="1">
          <mxGeometry x="350" y="260" width="160" height="50" as="geometry" />
        </mxCell>
        <mxCell id="WIpNyMzHm8HvfF3pxOTX-12" style="edgeStyle=orthogonalEdgeStyle;rounded=0;orthogonalLoop=1;jettySize=auto;html=1;entryX=0.5;entryY=0;entryDx=0;entryDy=0;" edge="1" parent="1" source="WIpNyMzHm8HvfF3pxOTX-10" target="WIpNyMzHm8HvfF3pxOTX-11">
          <mxGeometry relative="1" as="geometry" />
        </mxCell>
        <mxCell id="WIpNyMzHm8HvfF3pxOTX-10" value="sortedArr1(arr1)" style="rounded=0;whiteSpace=wrap;html=1;" vertex="1" parent="1">
          <mxGeometry x="360" y="450" width="150" height="40" as="geometry" />
        </mxCell>
        <mxCell id="WIpNyMzHm8HvfF3pxOTX-14" style="edgeStyle=orthogonalEdgeStyle;rounded=0;orthogonalLoop=1;jettySize=auto;html=1;entryX=0.5;entryY=0;entryDx=0;entryDy=0;" edge="1" parent="1" source="WIpNyMzHm8HvfF3pxOTX-11" target="WIpNyMzHm8HvfF3pxOTX-13">
          <mxGeometry relative="1" as="geometry" />
        </mxCell>
        <mxCell id="WIpNyMzHm8HvfF3pxOTX-11" value="choiceSort(N, &amp;amp;sortedArr1)" style="rounded=0;whiteSpace=wrap;html=1;" vertex="1" parent="1">
          <mxGeometry x="330" y="520" width="210" height="60" as="geometry" />
        </mxCell>
        <mxCell id="WIpNyMzHm8HvfF3pxOTX-15" style="edgeStyle=orthogonalEdgeStyle;rounded=0;orthogonalLoop=1;jettySize=auto;html=1;entryX=0;entryY=0.5;entryDx=0;entryDy=0;" edge="1" parent="1" source="WIpNyMzHm8HvfF3pxOTX-13" target="WIpNyMzHm8HvfF3pxOTX-13">
          <mxGeometry relative="1" as="geometry">
            <mxPoint x="360" y="700" as="targetPoint" />
            <Array as="points">
              <mxPoint x="435" y="680" />
              <mxPoint x="320" y="680" />
              <mxPoint x="320" y="635" />
            </Array>
          </mxGeometry>
        </mxCell>
        <mxCell id="WIpNyMzHm8HvfF3pxOTX-13" value="i = 0; i &amp;lt; N; i++" style="shape=hexagon;perimeter=hexagonPerimeter2;whiteSpace=wrap;html=1;fixedSize=1;" vertex="1" parent="1">
          <mxGeometry x="355" y="610" width="160" height="50" as="geometry" />
        </mxCell>
        <mxCell id="WIpNyMzHm8HvfF3pxOTX-21" style="edgeStyle=orthogonalEdgeStyle;rounded=0;orthogonalLoop=1;jettySize=auto;html=1;exitX=1;exitY=0.5;exitDx=0;exitDy=0;entryX=0.5;entryY=0;entryDx=0;entryDy=0;" edge="1" parent="1" target="WIpNyMzHm8HvfF3pxOTX-25" source="WIpNyMzHm8HvfF3pxOTX-13">
          <mxGeometry relative="1" as="geometry">
            <mxPoint x="435" y="800" as="targetPoint" />
            <mxPoint x="530" y="660" as="sourcePoint" />
            <Array as="points">
              <mxPoint x="591" y="635" />
              <mxPoint x="591" y="740" />
              <mxPoint x="435" y="740" />
            </Array>
          </mxGeometry>
        </mxCell>
        <mxCell id="WIpNyMzHm8HvfF3pxOTX-26" style="edgeStyle=orthogonalEdgeStyle;rounded=0;orthogonalLoop=1;jettySize=auto;html=1;entryX=0;entryY=0.5;entryDx=0;entryDy=0;" edge="1" parent="1" source="WIpNyMzHm8HvfF3pxOTX-25" target="WIpNyMzHm8HvfF3pxOTX-25">
          <mxGeometry relative="1" as="geometry">
            <mxPoint x="360" y="870" as="targetPoint" />
            <Array as="points">
              <mxPoint x="435" y="850" />
              <mxPoint x="320" y="850" />
              <mxPoint x="320" y="805" />
            </Array>
          </mxGeometry>
        </mxCell>
        <mxCell id="WIpNyMzHm8HvfF3pxOTX-27" style="edgeStyle=orthogonalEdgeStyle;rounded=0;orthogonalLoop=1;jettySize=auto;html=1;entryX=0.5;entryY=0;entryDx=0;entryDy=0;" edge="1" parent="1" source="WIpNyMzHm8HvfF3pxOTX-25" target="WIpNyMzHm8HvfF3pxOTX-28">
          <mxGeometry relative="1" as="geometry">
            <mxPoint x="435" y="920" as="targetPoint" />
            <Array as="points">
              <mxPoint x="551" y="805" />
              <mxPoint x="551" y="900" />
              <mxPoint x="435" y="900" />
            </Array>
          </mxGeometry>
        </mxCell>
        <mxCell id="WIpNyMzHm8HvfF3pxOTX-25" value="i = 0; i &amp;lt; M; i++" style="shape=hexagon;perimeter=hexagonPerimeter2;whiteSpace=wrap;html=1;fixedSize=1;" vertex="1" parent="1">
          <mxGeometry x="355" y="780" width="160" height="50" as="geometry" />
        </mxCell>
        <mxCell id="WIpNyMzHm8HvfF3pxOTX-28" value="Кінець" style="rounded=1;whiteSpace=wrap;html=1;arcSize=50;" vertex="1" parent="1">
          <mxGeometry x="375" y="920" width="120" height="60" as="geometry" />
        </mxCell>
      </root>
    </mxGraphModel>
  </diagram>
  <diagram id="oafffyk6IqXVm-55cFuq" name="Page-10">
    <mxGraphModel dx="2284" dy="759" grid="1" gridSize="10" guides="1" tooltips="1" connect="1" arrows="1" fold="1" page="1" pageScale="1" pageWidth="850" pageHeight="1100" math="0" shadow="0">
      <root>
        <mxCell id="0" />
        <mxCell id="1" parent="0" />
        <mxCell id="ciMJZB97a-tSkELgFF3e-1" value="Початок" style="rounded=1;whiteSpace=wrap;html=1;arcSize=50;fontSize=14;" vertex="1" parent="1">
          <mxGeometry x="350" y="30" width="120" height="60" as="geometry" />
        </mxCell>
        <mxCell id="ciMJZB97a-tSkELgFF3e-4" style="edgeStyle=orthogonalEdgeStyle;rounded=0;orthogonalLoop=1;jettySize=auto;html=1;entryX=0;entryY=0.5;entryDx=0;entryDy=0;fontSize=14;" edge="1" parent="1" source="ciMJZB97a-tSkELgFF3e-2" target="ciMJZB97a-tSkELgFF3e-2">
          <mxGeometry relative="1" as="geometry">
            <mxPoint x="340" y="230" as="targetPoint" />
            <Array as="points">
              <mxPoint x="410" y="190" />
              <mxPoint x="305" y="190" />
              <mxPoint x="305" y="150" />
            </Array>
          </mxGeometry>
        </mxCell>
        <mxCell id="ciMJZB97a-tSkELgFF3e-5" style="edgeStyle=orthogonalEdgeStyle;rounded=0;orthogonalLoop=1;jettySize=auto;html=1;entryX=0.5;entryY=0;entryDx=0;entryDy=0;fontSize=14;" edge="1" parent="1" source="ciMJZB97a-tSkELgFF3e-2" target="ciMJZB97a-tSkELgFF3e-6">
          <mxGeometry relative="1" as="geometry">
            <mxPoint x="400" y="290" as="targetPoint" />
            <Array as="points">
              <mxPoint x="515" y="150" />
              <mxPoint x="515" y="240" />
              <mxPoint x="405" y="240" />
            </Array>
          </mxGeometry>
        </mxCell>
        <mxCell id="ciMJZB97a-tSkELgFF3e-2" value="i = 0; i &amp;lt; size1; i++" style="shape=hexagon;perimeter=hexagonPerimeter2;whiteSpace=wrap;html=1;fixedSize=1;fontSize=14;" vertex="1" parent="1">
          <mxGeometry x="325" y="130" width="170" height="40" as="geometry" />
        </mxCell>
        <mxCell id="ciMJZB97a-tSkELgFF3e-3" value="" style="endArrow=none;html=1;rounded=0;entryX=0.5;entryY=1;entryDx=0;entryDy=0;fontSize=14;" edge="1" parent="1" target="ciMJZB97a-tSkELgFF3e-1">
          <mxGeometry width="50" height="50" relative="1" as="geometry">
            <mxPoint x="410" y="130" as="sourcePoint" />
            <mxPoint x="450" y="370" as="targetPoint" />
          </mxGeometry>
        </mxCell>
        <mxCell id="ciMJZB97a-tSkELgFF3e-7" style="edgeStyle=orthogonalEdgeStyle;rounded=0;orthogonalLoop=1;jettySize=auto;html=1;entryX=0;entryY=0.5;entryDx=0;entryDy=0;fontSize=14;" edge="1" parent="1" source="ciMJZB97a-tSkELgFF3e-6" target="ciMJZB97a-tSkELgFF3e-6">
          <mxGeometry relative="1" as="geometry">
            <mxPoint x="320" y="350" as="targetPoint" />
            <Array as="points">
              <mxPoint x="405" y="350" />
              <mxPoint x="290" y="350" />
              <mxPoint x="290" y="310" />
            </Array>
          </mxGeometry>
        </mxCell>
        <mxCell id="ciMJZB97a-tSkELgFF3e-8" style="edgeStyle=orthogonalEdgeStyle;rounded=0;orthogonalLoop=1;jettySize=auto;html=1;entryX=0.5;entryY=0;entryDx=0;entryDy=0;fontSize=14;" edge="1" parent="1" source="ciMJZB97a-tSkELgFF3e-6" target="ciMJZB97a-tSkELgFF3e-9">
          <mxGeometry relative="1" as="geometry">
            <mxPoint x="400" y="440" as="targetPoint" />
            <Array as="points">
              <mxPoint x="521" y="310" />
              <mxPoint x="521" y="400" />
              <mxPoint x="405" y="400" />
            </Array>
          </mxGeometry>
        </mxCell>
        <mxCell id="ciMJZB97a-tSkELgFF3e-6" value="i = 0; i &amp;lt; size2; i++" style="shape=hexagon;perimeter=hexagonPerimeter2;whiteSpace=wrap;html=1;fixedSize=1;fontSize=14;" vertex="1" parent="1">
          <mxGeometry x="320" y="290" width="170" height="40" as="geometry" />
        </mxCell>
        <mxCell id="ciMJZB97a-tSkELgFF3e-10" style="edgeStyle=orthogonalEdgeStyle;rounded=0;orthogonalLoop=1;jettySize=auto;html=1;entryX=0.5;entryY=0;entryDx=0;entryDy=0;fontSize=14;" edge="1" parent="1" source="ciMJZB97a-tSkELgFF3e-9" target="ciMJZB97a-tSkELgFF3e-11">
          <mxGeometry relative="1" as="geometry">
            <mxPoint x="560" y="560" as="targetPoint" />
          </mxGeometry>
        </mxCell>
        <mxCell id="ciMJZB97a-tSkELgFF3e-20" style="edgeStyle=orthogonalEdgeStyle;rounded=0;orthogonalLoop=1;jettySize=auto;html=1;entryX=0.5;entryY=0;entryDx=0;entryDy=0;exitX=0;exitY=0.5;exitDx=0;exitDy=0;fontSize=14;" edge="1" parent="1" source="ciMJZB97a-tSkELgFF3e-9" target="ciMJZB97a-tSkELgFF3e-21">
          <mxGeometry relative="1" as="geometry">
            <mxPoint x="160" y="580" as="targetPoint" />
          </mxGeometry>
        </mxCell>
        <mxCell id="ciMJZB97a-tSkELgFF3e-9" value="str == &quot;UNION&quot;" style="rhombus;whiteSpace=wrap;html=1;fontSize=14;" vertex="1" parent="1">
          <mxGeometry x="332.5" y="430" width="145" height="110" as="geometry" />
        </mxCell>
        <mxCell id="ciMJZB97a-tSkELgFF3e-12" style="edgeStyle=orthogonalEdgeStyle;rounded=0;orthogonalLoop=1;jettySize=auto;html=1;entryX=0.5;entryY=0;entryDx=0;entryDy=0;fontSize=14;" edge="1" parent="1" source="ciMJZB97a-tSkELgFF3e-11" target="ciMJZB97a-tSkELgFF3e-13">
          <mxGeometry relative="1" as="geometry">
            <mxPoint x="780" y="680" as="targetPoint" />
          </mxGeometry>
        </mxCell>
        <mxCell id="ciMJZB97a-tSkELgFF3e-17" style="edgeStyle=orthogonalEdgeStyle;rounded=0;orthogonalLoop=1;jettySize=auto;html=1;entryX=0.5;entryY=0;entryDx=0;entryDy=0;exitX=0;exitY=0.5;exitDx=0;exitDy=0;fontSize=14;" edge="1" parent="1" source="ciMJZB97a-tSkELgFF3e-11" target="ciMJZB97a-tSkELgFF3e-18">
          <mxGeometry relative="1" as="geometry">
            <mxPoint x="440" y="710" as="targetPoint" />
          </mxGeometry>
        </mxCell>
        <mxCell id="ciMJZB97a-tSkELgFF3e-11" value="str == &quot;INTERSECTION&quot;" style="rhombus;whiteSpace=wrap;html=1;fontSize=14;" vertex="1" parent="1">
          <mxGeometry x="490" y="540" width="200" height="110" as="geometry" />
        </mxCell>
        <mxCell id="ciMJZB97a-tSkELgFF3e-14" style="edgeStyle=orthogonalEdgeStyle;rounded=0;orthogonalLoop=1;jettySize=auto;html=1;fontSize=14;" edge="1" parent="1" source="ciMJZB97a-tSkELgFF3e-13">
          <mxGeometry relative="1" as="geometry">
            <mxPoint x="810" y="910" as="targetPoint" />
            <Array as="points">
              <mxPoint x="1010" y="705" />
              <mxPoint x="1010" y="910" />
            </Array>
          </mxGeometry>
        </mxCell>
        <mxCell id="ciMJZB97a-tSkELgFF3e-15" style="edgeStyle=orthogonalEdgeStyle;rounded=0;orthogonalLoop=1;jettySize=auto;html=1;fontSize=14;" edge="1" parent="1" source="ciMJZB97a-tSkELgFF3e-13" target="ciMJZB97a-tSkELgFF3e-16">
          <mxGeometry relative="1" as="geometry">
            <mxPoint x="810" y="790" as="targetPoint" />
          </mxGeometry>
        </mxCell>
        <mxCell id="ciMJZB97a-tSkELgFF3e-13" value="str == &quot;DIFFERENCE&quot;" style="rhombus;whiteSpace=wrap;html=1;fontSize=14;" vertex="1" parent="1">
          <mxGeometry x="710" y="650" width="200" height="110" as="geometry" />
        </mxCell>
        <mxCell id="ciMJZB97a-tSkELgFF3e-16" value="set_difference(begin(A), end(A), begin(B), end(B), back_inserter(solution))" style="rounded=0;whiteSpace=wrap;html=1;fontSize=14;" vertex="1" parent="1">
          <mxGeometry x="630" y="780" width="360" height="60" as="geometry" />
        </mxCell>
        <mxCell id="ciMJZB97a-tSkELgFF3e-18" value="set_intersection(begin(A), end(A), begin(B), end(B), back_inserter(solution))" style="rounded=0;whiteSpace=wrap;html=1;fontSize=14;" vertex="1" parent="1">
          <mxGeometry x="260" y="675" width="360" height="60" as="geometry" />
        </mxCell>
        <mxCell id="ciMJZB97a-tSkELgFF3e-19" value="" style="endArrow=none;html=1;rounded=0;exitX=0.481;exitY=1;exitDx=0;exitDy=0;exitPerimeter=0;entryX=0.5;entryY=1;entryDx=0;entryDy=0;fontSize=14;" edge="1" parent="1" source="ciMJZB97a-tSkELgFF3e-18" target="ciMJZB97a-tSkELgFF3e-16">
          <mxGeometry width="50" height="50" relative="1" as="geometry">
            <mxPoint x="870" y="730" as="sourcePoint" />
            <mxPoint x="920" y="680" as="targetPoint" />
            <Array as="points">
              <mxPoint x="433" y="950" />
              <mxPoint x="810" y="950" />
            </Array>
          </mxGeometry>
        </mxCell>
        <mxCell id="ciMJZB97a-tSkELgFF3e-21" value="set_union(begin(A), end(A), begin(B), end(B), back_inserter(solution))" style="rounded=0;whiteSpace=wrap;html=1;fontSize=14;" vertex="1" parent="1">
          <mxGeometry x="-10" y="550" width="360" height="60" as="geometry" />
        </mxCell>
        <mxCell id="ciMJZB97a-tSkELgFF3e-22" value="" style="endArrow=none;html=1;rounded=0;exitX=0.5;exitY=1;exitDx=0;exitDy=0;fontSize=14;" edge="1" parent="1" source="ciMJZB97a-tSkELgFF3e-21">
          <mxGeometry width="50" height="50" relative="1" as="geometry">
            <mxPoint x="350" y="880" as="sourcePoint" />
            <mxPoint x="430" y="840" as="targetPoint" />
            <Array as="points">
              <mxPoint x="170" y="840" />
            </Array>
          </mxGeometry>
        </mxCell>
        <mxCell id="ciMJZB97a-tSkELgFF3e-23" value="" style="endArrow=none;html=1;rounded=0;entryX=0.5;entryY=0;entryDx=0;entryDy=0;fontSize=14;" edge="1" parent="1" target="ciMJZB97a-tSkELgFF3e-24">
          <mxGeometry width="50" height="50" relative="1" as="geometry">
            <mxPoint x="480" y="950" as="sourcePoint" />
            <mxPoint x="480" y="980" as="targetPoint" />
          </mxGeometry>
        </mxCell>
        <mxCell id="ciMJZB97a-tSkELgFF3e-24" value="Кінець" style="rounded=1;whiteSpace=wrap;html=1;arcSize=50;fontSize=14;" vertex="1" parent="1">
          <mxGeometry x="420" y="980" width="120" height="60" as="geometry" />
        </mxCell>
        <mxCell id="ciMJZB97a-tSkELgFF3e-25" value="yes" style="text;html=1;align=center;verticalAlign=middle;resizable=0;points=[];autosize=1;strokeColor=none;fillColor=none;fontSize=14;" vertex="1" parent="1">
          <mxGeometry x="280" y="448" width="40" height="30" as="geometry" />
        </mxCell>
        <mxCell id="ciMJZB97a-tSkELgFF3e-26" value="no" style="text;html=1;align=center;verticalAlign=middle;resizable=0;points=[];autosize=1;strokeColor=none;fillColor=none;fontSize=14;" vertex="1" parent="1">
          <mxGeometry x="490" y="458" width="40" height="30" as="geometry" />
        </mxCell>
        <mxCell id="ciMJZB97a-tSkELgFF3e-27" value="&lt;div style=&quot;font-size: 14px;&quot;&gt;yes&lt;/div&gt;" style="text;html=1;align=center;verticalAlign=middle;resizable=0;points=[];autosize=1;strokeColor=none;fillColor=none;fontSize=14;" vertex="1" parent="1">
          <mxGeometry x="440" y="568" width="40" height="30" as="geometry" />
        </mxCell>
        <mxCell id="ciMJZB97a-tSkELgFF3e-28" value="no" style="text;html=1;align=center;verticalAlign=middle;resizable=0;points=[];autosize=1;strokeColor=none;fillColor=none;fontSize=14;" vertex="1" parent="1">
          <mxGeometry x="690" y="568" width="40" height="30" as="geometry" />
        </mxCell>
        <mxCell id="ciMJZB97a-tSkELgFF3e-30" value="no" style="text;html=1;align=center;verticalAlign=middle;resizable=0;points=[];autosize=1;strokeColor=none;fillColor=none;fontSize=14;" vertex="1" parent="1">
          <mxGeometry x="920" y="668" width="40" height="30" as="geometry" />
        </mxCell>
        <mxCell id="ciMJZB97a-tSkELgFF3e-31" value="yes" style="text;html=1;align=center;verticalAlign=middle;resizable=0;points=[];autosize=1;strokeColor=none;fillColor=none;fontSize=14;" vertex="1" parent="1">
          <mxGeometry x="820" y="750" width="40" height="30" as="geometry" />
        </mxCell>
      </root>
    </mxGraphModel>
  </diagram>
</mxfile>
